<svg width="151" height="150" viewBox="0 0 151 150" fill="none" xmlns="http://www.w3.org/2000/svg">
<path d="M25.583 133.519L21.8812 130.015C21.1676 129.34 20.7827 128.637 20.7265 127.907C20.6628 127.171 20.9547 126.46 21.602 125.776C21.9468 125.412 22.3491 125.166 22.809 125.037C23.2544 124.909 23.6959 124.904 24.1335 125.023C23.5766 123.988 23.7379 123.006 24.6175 122.077C25.0537 121.616 25.5378 121.313 26.0696 121.168C26.5943 121.031 27.1196 121.042 27.6452 121.201C28.1635 121.354 28.6382 121.634 29.0693 122.042L32.9606 125.725L25.583 133.519ZM25.1756 126.982C24.8559 126.679 24.5186 126.522 24.1635 126.51C23.8013 126.505 23.4514 126.681 23.1136 127.038C22.7266 127.447 22.5594 127.817 22.612 128.149C22.65 128.481 22.8549 128.823 23.2266 129.175L25.2336 131.074L27.2495 128.945L25.1756 126.982ZM28.3372 123.463C27.9432 123.09 27.5648 122.887 27.2018 122.853C26.8315 122.813 26.4493 123.001 26.0552 123.417C25.6612 123.833 25.4877 124.24 25.5348 124.637C25.5819 125.034 25.8173 125.433 26.241 125.834L28.3261 127.807L30.5003 125.511L28.3372 123.463Z" fill="white"/>
<path d="M20.7801 111.811C21.5542 112.944 21.8834 114.033 21.7679 115.079C21.6524 116.125 21.0876 116.995 20.0737 117.688C19.0767 118.37 18.0873 118.618 17.1057 118.434C16.1241 118.249 15.2636 117.616 14.5242 116.535C14.0389 115.825 13.7611 115.129 13.6906 114.445C13.6144 113.753 13.7262 113.119 14.0261 112.542C14.3175 111.971 14.7632 111.48 15.3631 111.07L16.0982 110.567L19.6422 115.751C20.4712 115.023 20.3861 113.928 19.3867 112.467C19.1209 112.078 18.8156 111.704 18.4707 111.344C18.1259 110.985 17.7903 110.694 17.464 110.47L18.6934 109.63C19.0081 109.836 19.3595 110.142 19.7475 110.546C20.1297 110.942 20.4739 111.364 20.7801 111.811ZM16.0394 112.821C15.5693 113.167 15.3159 113.594 15.2793 114.103C15.2369 114.603 15.4092 115.136 15.7962 115.702C16.1775 116.26 16.6131 116.607 17.103 116.743C17.5929 116.879 18.076 116.797 18.5523 116.496L16.0394 112.821Z" fill="white"/>
<path d="M14.8191 101.012C15.0311 101.5 15.201 102.045 15.3288 102.648C15.4566 103.251 15.4892 103.75 15.4266 104.146L13.9197 104.8C13.986 104.336 13.9796 103.82 13.9003 103.252C13.8116 102.688 13.6695 102.18 13.4738 101.73C13.2781 101.279 13.0979 100.967 12.9331 100.793C12.759 100.623 12.5639 100.585 12.348 100.679C12.179 100.752 12.0673 100.867 12.0129 101.025C11.9451 101.177 11.9219 101.394 11.9434 101.674C11.9514 101.95 11.9977 102.365 12.0823 102.92C12.1673 103.552 12.1966 104.069 12.1703 104.471C12.1399 104.864 12.0346 105.2 11.8545 105.479C11.6609 105.753 11.3575 105.979 10.9444 106.159C10.2684 106.452 9.64525 106.405 9.07491 106.016C8.49518 105.632 8.00762 104.984 7.61223 104.074C7.40842 103.604 7.25359 103.119 7.14774 102.618C7.02843 102.112 6.99152 101.693 7.03699 101.361L8.48756 100.731C8.44085 101.086 8.45349 101.488 8.52549 101.936C8.59749 102.385 8.72521 102.82 8.90864 103.243C9.10837 103.703 9.30613 104.03 9.50193 104.224C9.68833 104.422 9.90828 104.466 10.1618 104.356C10.3308 104.283 10.4404 104.162 10.4907 103.996C10.5275 103.823 10.5387 103.618 10.5241 103.378C10.5001 103.143 10.4404 102.723 10.3448 102.117C10.2517 101.466 10.2277 100.935 10.2728 100.525C10.3179 100.115 10.4413 99.7823 10.643 99.5274C10.8448 99.2724 11.1428 99.0593 11.5372 98.8881C12.138 98.6272 12.7337 98.6755 13.324 99.0329C13.9009 99.385 14.3993 100.045 14.8191 101.012Z" fill="white"/>
<path d="M11.1839 90.1733C11.3826 90.9571 11.3152 91.6077 10.9818 92.1252C10.6484 92.6427 10.0848 93.002 9.29113 93.2033L5.85331 94.0749L6.12498 95.1464L4.69628 95.5086L4.4246 94.4371L2.28155 94.9805L1.80611 93.1053L3.94917 92.5619L3.51524 90.8505L4.94394 90.4882L5.37787 92.1997L8.57757 91.3885C9.03396 91.2727 9.33999 91.1054 9.49566 90.8864C9.64141 90.67 9.65768 90.3385 9.54448 89.892C9.4665 89.5844 9.32032 89.2995 9.10596 89.037L10.5347 88.6748C10.8115 89.0586 11.0279 89.5581 11.1839 90.1733Z" fill="white"/>
<path d="M1.65914 72.9919L1.81964 71.1257L2.70685 71.202C2.36374 70.7718 2.12057 70.3143 1.97735 69.8294C1.83414 69.3445 1.7884 68.8013 1.84015 68.1996C1.90417 67.4551 2.12434 66.8063 2.50067 66.2531C2.86767 65.6888 3.36094 65.2689 3.98048 64.9935C4.5907 64.7069 5.28333 64.597 6.05836 64.6637C6.8232 64.7294 7.48689 64.956 8.04942 65.3434C8.61283 65.7206 9.03736 66.2194 9.32302 66.8398C9.59936 67.4492 9.70552 68.1261 9.64149 68.8705C9.59326 69.4314 9.47117 69.9551 9.27522 70.4416C9.06996 70.9171 8.79435 71.3146 8.4484 71.6342L12.5173 71.9841L12.3516 73.9115L1.65914 72.9919ZM8.08633 69.2145C8.14597 68.521 7.97073 67.9307 7.56062 67.4434C7.1505 66.9561 6.59362 66.6822 5.88997 66.6216C5.18632 66.5611 4.59594 66.7364 4.11885 67.1474C3.64175 67.5583 3.37338 68.1106 3.31374 68.804C3.26638 69.3547 3.37215 69.8569 3.63105 70.3107C3.88996 70.7644 4.2618 71.0994 4.74658 71.3158L6.23037 71.4434C6.74409 71.3232 7.17234 71.0621 7.51512 70.6601C7.84857 70.247 8.03897 69.7652 8.08633 69.2145Z" fill="white"/>
<path d="M0 56.4824L0.483931 54.6094L11.4692 57.4477L10.9853 59.3207L0 56.4824Z" fill="white"/>
<path d="M14.3779 49.6678C14.0283 50.4756 13.5304 51.0464 12.8841 51.3802C12.2284 51.7099 11.5389 51.7182 10.8156 51.4052C10.0641 51.0801 9.58267 50.5818 9.37131 49.9104C9.15995 49.239 9.24531 48.4618 9.62739 47.5788C9.99728 46.724 10.4901 46.0617 11.106 45.5921L10.9228 45.5129C10.4437 45.3056 10.0311 45.3055 9.68498 45.5126C9.34292 45.7103 9.02963 46.138 8.7451 46.7955C8.56625 47.2089 8.43171 47.6358 8.34148 48.0763C8.24184 48.5128 8.19542 48.9165 8.20219 49.2874L6.80721 48.6838C6.79764 48.3451 6.85219 47.9226 6.97088 47.4163C7.09364 46.9007 7.25054 46.4221 7.44158 45.9806C7.94966 44.8063 8.57928 44.0472 9.33042 43.703C10.0722 43.3548 10.8893 43.3738 11.7817 43.7599L15.9102 45.5464L15.1847 47.2232L14.5224 46.9366C14.6782 47.3498 14.75 47.7767 14.7377 48.2175C14.7295 48.6489 14.6095 49.1323 14.3779 49.6678ZM13.2705 48.67C13.4412 48.2755 13.5205 47.886 13.5084 47.5016C13.4869 47.1131 13.3766 46.7754 13.1773 46.4884L12.4305 46.1653C11.8406 46.5234 11.4013 47.036 11.1127 47.7029C10.7022 48.6517 10.8633 49.2846 11.596 49.6016C11.953 49.7561 12.2715 49.7545 12.5516 49.5969C12.8358 49.4299 13.0754 49.1209 13.2705 48.67Z" fill="white"/>
<path d="M12.6482 36.2127L13.7213 34.6774L14.5392 35.2491C14.3946 34.7235 14.3804 34.2078 14.4966 33.7021C14.6044 33.1905 14.8107 32.7166 15.1156 32.2803C15.6844 31.4665 16.3318 31.0137 17.0579 30.9217C17.7756 30.8239 18.4994 31.0301 19.2293 31.5402L23.0424 34.2052L21.9342 35.7908L18.2721 33.2314C17.3912 32.6157 16.6634 32.719 16.0888 33.5412C15.8367 33.9019 15.6873 34.3033 15.6407 34.7452C15.5857 35.1813 15.6539 35.6286 15.8454 36.0871L19.7969 38.8488L18.6887 40.4344L12.6482 36.2127Z" fill="white"/>
<path d="M29.2486 27.7759C28.8667 28.1467 28.4164 28.4984 27.8976 28.831C27.3788 29.1636 26.9234 29.3704 26.5313 29.4515L25.3868 28.273C25.8444 28.1711 26.3248 27.9827 26.8283 27.7078C27.3247 27.4256 27.7491 27.1133 28.1016 26.7711C28.454 26.4288 28.6825 26.1499 28.787 25.9342C28.8844 25.7113 28.8511 25.5154 28.6871 25.3465C28.5587 25.2143 28.4113 25.1506 28.2447 25.1554C28.0784 25.1457 27.8677 25.2005 27.6126 25.3198C27.3577 25.4247 26.9857 25.6146 26.4967 25.8898C25.9349 26.1928 25.4613 26.403 25.076 26.5204C24.698 26.6306 24.3466 26.6508 24.0219 26.5809C23.6974 26.4965 23.3783 26.2928 23.0646 25.9697C22.5512 25.441 22.3754 24.8412 22.5372 24.1704C22.692 23.4923 23.1255 22.8074 23.8377 22.1157C24.2049 21.7592 24.604 21.443 25.0351 21.167C25.4665 20.8766 25.8455 20.6939 26.1724 20.6191L27.274 21.7536C26.9254 21.8353 26.554 21.9891 26.1598 22.215C25.7656 22.4408 25.4033 22.7142 25.0729 23.035C24.7131 23.3844 24.477 23.685 24.3647 23.9367C24.2453 24.181 24.2819 24.4023 24.4744 24.6006C24.6028 24.7328 24.7539 24.7929 24.9278 24.781C25.1019 24.7546 25.2983 24.6923 25.5169 24.5942C25.7283 24.4887 26.1005 24.2843 26.6333 23.9808C27.2098 23.6636 27.6979 23.4536 28.0975 23.3509C28.4971 23.2482 28.8518 23.2461 29.1616 23.3448C29.4714 23.4434 29.7761 23.647 30.0755 23.9554C30.5319 24.4253 30.6972 24.9996 30.5714 25.6781C30.4458 26.3422 30.0049 27.0415 29.2486 27.7759Z" fill="white"/>
<path d="M49.8979 2.3291L54.8032 0.94335C55.7488 0.676217 56.5494 0.705311 57.2051 1.03063C57.8705 1.35317 58.3313 1.96753 58.5873 2.87373C58.7236 3.35638 58.7292 3.8281 58.6041 4.28888C58.4861 4.73703 58.2642 5.11879 57.9385 5.43416C59.1124 5.48545 59.8732 6.12672 60.221 7.35797C60.3935 7.96867 60.4059 8.53953 60.2581 9.07054C60.1075 9.5917 59.8292 10.0373 59.4232 10.4072C59.027 10.7744 58.5433 11.0387 57.972 11.2001L52.8155 12.6568L49.8979 2.3291ZM55.7224 5.32635C56.1459 5.20669 56.4537 4.99742 56.6458 4.69852C56.8351 4.38977 56.863 3.999 56.7295 3.5262C56.5764 2.98445 56.344 2.65125 56.0323 2.5266C55.7276 2.38931 55.329 2.39024 54.8365 2.52937L52.177 3.28068L52.9742 6.1027L55.7224 5.32635ZM57.1261 9.84364C57.6482 9.69616 58.0165 9.47512 58.2311 9.1805C58.4555 8.88311 58.4898 8.45861 58.334 7.90701C58.1782 7.35541 57.9177 6.99823 57.5526 6.83546C57.1876 6.67269 56.7243 6.67061 56.1629 6.82922L53.4 7.60975L54.2598 10.6534L57.1261 9.84364Z" fill="white"/>
<path d="M71.0032 9.31855C69.6343 9.40379 68.5302 9.129 67.6907 8.49417C66.8513 7.85934 66.3934 6.92898 66.317 5.7031C66.242 4.49765 66.5349 3.52053 67.1959 2.77175C67.8569 2.02298 68.8412 1.60787 70.1488 1.52644C71.0069 1.47301 71.7475 1.59097 72.3706 1.88034C73.0039 2.16907 73.4916 2.58993 73.8337 3.14293C74.1752 3.68571 74.3685 4.31975 74.4137 5.04507L74.469 5.93383L68.2017 6.32412C68.4025 7.40893 69.3866 7.89631 71.154 7.78625C71.6239 7.75699 72.1015 7.68622 72.5867 7.57396C73.072 7.4617 73.4941 7.32261 73.8529 7.15669L73.9455 8.64307C73.6071 8.80772 73.1649 8.95319 72.619 9.07949C72.0832 9.20515 71.5447 9.28483 71.0032 9.31855ZM72.5634 4.72956C72.5067 4.14854 72.2693 3.71209 71.8512 3.42022C71.4433 3.1277 70.8971 3.00276 70.2126 3.04538C69.5384 3.08737 69.0174 3.2839 68.6495 3.63498C68.2817 3.98605 68.105 4.44316 68.1196 5.0063L72.5634 4.72956Z" fill="white"/>
<path d="M83.3321 9.72576C82.8042 9.65787 82.2486 9.5245 81.6653 9.32565C81.082 9.1268 80.6366 8.89924 80.329 8.64297L80.5385 7.01359C80.9031 7.30816 81.3497 7.56682 81.8784 7.7896C82.4083 8.00223 82.9169 8.13987 83.4042 8.20254C83.8915 8.26521 84.252 8.27029 84.4858 8.2178C84.7209 8.15515 84.8534 8.00709 84.8835 7.77359C84.907 7.59086 84.865 7.43582 84.7575 7.30849C84.6615 7.1723 84.4874 7.04155 84.2352 6.91624C83.9945 6.78209 83.6142 6.60935 83.0945 6.39803C82.5075 6.14711 82.0482 5.90744 81.7164 5.67901C81.3947 5.45189 81.1601 5.18953 81.0126 4.89193C80.8766 4.58548 80.8373 4.20892 80.8948 3.76223C80.9888 3.0313 81.3486 2.5203 81.9742 2.22925C82.6012 1.92805 83.407 1.84077 84.3918 1.9674C84.8994 2.03268 85.3954 2.14806 85.8798 2.31355C86.3756 2.4702 86.7545 2.65309 87.0166 2.86223L86.8149 4.43069C86.5338 4.20879 86.1822 4.01394 85.7601 3.84613C85.3379 3.67832 84.8984 3.56504 84.4416 3.50629C83.9441 3.44232 83.562 3.44477 83.2951 3.51365C83.0296 3.57238 82.8792 3.7388 82.8439 4.0129C82.8204 4.19563 82.8675 4.35132 82.9851 4.47996C83.1142 4.59976 83.2851 4.71463 83.498 4.82456C83.7122 4.92435 84.104 5.08824 84.6732 5.31624C85.2804 5.56977 85.7486 5.82089 86.0778 6.06963C86.407 6.31836 86.6295 6.59464 86.7452 6.89848C86.8609 7.20231 86.8914 7.56742 86.8366 7.9938C86.753 8.64352 86.4066 9.13044 85.7973 9.45456C85.1995 9.76983 84.3778 9.86023 83.3321 9.72576Z" fill="white"/>
<path d="M94.5031 12.1535C93.728 11.9229 93.2036 11.5319 92.9298 10.9806C92.656 10.4292 92.6359 9.76115 92.8694 8.97631L93.8808 5.57699L92.8213 5.26175L93.2416 3.84904L94.3011 4.16428L94.9316 2.04522L96.7858 2.5969L96.1553 4.71596L97.8476 5.21947L97.4273 6.63217L95.735 6.12866L94.7936 9.29253C94.6594 9.74382 94.6464 10.0924 94.7548 10.3382C94.8661 10.5742 95.1425 10.7579 95.584 10.8893C95.8881 10.9797 96.2078 11.0001 96.543 10.9503L96.1226 12.363C95.6512 12.4043 95.1113 12.3344 94.5031 12.1535Z" fill="white"/>
<path d="M114.139 12.768L115.66 13.8614L115.14 14.5844C115.685 14.5099 116.203 14.5353 116.693 14.6605C117.182 14.7858 117.673 15.0246 118.163 15.3771C118.77 15.8133 119.214 16.3346 119.497 16.9411C119.794 17.5453 119.902 18.184 119.821 18.8572C119.755 19.528 119.495 20.1793 119.041 20.8109C118.592 21.4342 118.058 21.8883 117.437 22.1732C116.825 22.464 116.179 22.5733 115.5 22.501C114.835 22.4264 114.199 22.1711 113.592 21.7349C113.135 21.4063 112.748 21.0333 112.43 20.6159C112.127 20.1962 111.927 19.7559 111.829 19.2951L109.445 22.6111L107.875 21.4819L114.139 12.768ZM114.093 20.223C114.658 20.6292 115.255 20.781 115.884 20.6782C116.512 20.5754 117.033 20.2372 117.445 19.6638C117.857 19.0904 118.009 18.4935 117.9 17.8733C117.791 17.253 117.454 16.7398 116.889 16.3335C116.44 16.0109 115.955 15.8446 115.433 15.8347C114.91 15.8248 114.432 15.9726 113.998 16.2783L113.129 17.4875C112.969 17.9903 112.974 18.4919 113.144 18.9921C113.328 19.4901 113.644 19.9003 114.093 20.223Z" fill="white"/>
<path d="M129.17 19.7957L130.531 21.1703L122.469 29.1534L121.108 27.7788L129.17 19.7957Z" fill="white"/>
<path d="M127.662 35.6354C127.147 34.9216 126.911 34.2016 126.956 33.4756C127.008 32.7436 127.354 32.147 127.993 31.6859C128.657 31.2069 129.332 31.0484 130.017 31.2106C130.701 31.3728 131.325 31.8441 131.888 32.6244C132.433 33.3798 132.75 34.1422 132.838 34.9116L133 34.7948C133.423 34.4894 133.634 34.1351 133.634 33.7317C133.639 33.3366 133.432 32.8486 133.013 32.2675C132.749 31.9023 132.451 31.5681 132.119 31.2651C131.795 30.956 131.472 30.7094 131.15 30.5253L132.383 29.6361C132.679 29.8013 133.014 30.0645 133.388 30.4256C133.768 30.7951 134.099 31.1749 134.38 31.565C135.129 32.6027 135.459 33.5322 135.37 34.3536C135.289 35.1691 134.854 35.8612 134.066 36.4301L130.417 39.0619L129.348 37.5801L129.934 37.158C129.499 37.0803 129.096 36.9233 128.723 36.6871C128.357 36.4591 128.003 36.1086 127.662 35.6354ZM129.086 35.1951C129.337 35.5437 129.631 35.8113 129.968 35.9977C130.312 36.1781 130.659 36.2562 131.007 36.232L131.667 35.7559C131.662 35.0658 131.446 34.4261 131.021 33.8367C130.416 32.9983 129.79 32.8127 129.143 33.2797C128.827 33.5073 128.666 33.7817 128.658 34.103C128.656 34.4326 128.798 34.7966 129.086 35.1951Z" fill="white"/>
<path d="M140.105 41.038L140.875 42.7457L139.965 43.1557C140.491 43.3006 140.941 43.5524 141.316 43.9111C141.7 44.2656 142.001 44.6855 142.22 45.1708C142.628 46.076 142.685 46.864 142.393 47.5348C142.109 48.2013 141.562 48.7175 140.75 49.0833L136.508 50.9943L135.714 49.2305L139.787 47.3952C140.767 46.9538 141.051 46.2757 140.639 45.3612C140.458 44.9599 140.19 44.6261 139.834 44.3598C139.488 44.0893 139.068 43.9189 138.576 43.8487L134.181 45.829L133.386 44.0652L140.105 41.038Z" fill="white"/>
<path d="M138.854 59.6173C138.731 59.0995 138.659 58.5326 138.639 57.9166C138.619 57.3007 138.674 56.8036 138.806 56.4253L140.404 56.0456C140.257 56.4908 140.173 57 140.151 57.5732C140.14 58.1441 140.191 58.6685 140.304 59.1465C140.418 59.6245 140.54 59.9636 140.672 60.1638C140.814 60.3615 140.999 60.4332 141.228 60.3788C141.407 60.3363 141.537 60.2422 141.619 60.0967C141.712 59.9588 141.773 59.7497 141.801 59.4695C141.841 59.1969 141.869 58.7801 141.883 58.2192C141.91 57.5815 141.972 57.067 142.068 56.6759C142.167 56.2948 142.33 55.9826 142.556 55.7395C142.795 55.504 143.133 55.3342 143.571 55.2301C144.288 55.0598 144.894 55.2158 145.387 55.6983C145.89 56.1784 146.257 56.9014 146.486 57.8674C146.604 58.3653 146.672 58.8701 146.688 59.3817C146.717 59.9009 146.679 60.32 146.576 60.6391L145.038 61.0046C145.146 60.6632 145.204 60.2655 145.212 59.8112C145.22 59.357 145.17 58.9058 145.064 58.4577C144.948 57.9697 144.811 57.6131 144.652 57.3878C144.503 57.1601 144.294 57.0782 144.026 57.1421C143.846 57.1847 143.717 57.2837 143.638 57.4392C143.572 57.6023 143.525 57.8028 143.497 58.0408C143.48 58.2764 143.465 58.7008 143.453 59.3139C143.43 59.9715 143.36 60.4982 143.244 60.8941C143.128 61.29 142.948 61.5957 142.704 61.8113C142.461 62.0269 142.13 62.1844 141.712 62.2837C141.075 62.4351 140.497 62.2831 139.978 61.8277C139.472 61.3798 139.097 60.643 138.854 59.6173Z" fill="white"/>
<path d="M150.14 90.3828L148.819 95.3059C148.564 96.2549 148.129 96.9278 147.514 97.3244C146.896 97.7309 146.132 97.8121 145.223 97.568C144.739 97.438 144.331 97.2014 143.999 96.858C143.674 96.5271 143.46 96.1411 143.356 95.6999C142.711 96.6819 141.77 97.0071 140.535 96.6755C139.922 96.511 139.425 96.2294 139.045 95.8306C138.674 95.4344 138.434 94.9672 138.324 94.429C138.211 93.9007 138.232 93.3499 138.386 92.7765L139.774 87.6013L150.14 90.3828ZM144.583 93.8514C144.469 94.2765 144.491 94.648 144.649 94.9661C144.818 95.2868 145.139 95.5108 145.614 95.6381C146.157 95.784 146.563 95.755 146.829 95.551C147.103 95.3596 147.307 95.0167 147.439 94.5224L148.155 91.8533L145.323 91.0933L144.583 93.8514ZM139.984 92.7444C139.843 93.2683 139.845 93.6979 139.988 94.0331C140.128 94.3781 140.476 94.6249 141.029 94.7735C141.583 94.922 142.023 94.8812 142.35 94.6509C142.676 94.4207 142.915 94.0238 143.067 93.4603L143.811 90.6874L140.756 89.8677L139.984 92.7444Z" fill="white"/>
<path d="M133.33 104.934C133.958 103.715 134.759 102.907 135.735 102.511C136.71 102.115 137.743 102.198 138.835 102.76C139.909 103.312 140.599 104.064 140.903 105.016C141.208 105.967 141.061 107.025 140.461 108.19C140.068 108.954 139.587 109.53 139.02 109.917C138.447 110.313 137.836 110.517 137.186 110.527C136.545 110.543 135.901 110.384 135.255 110.052L134.463 109.644L137.337 104.061C136.302 103.678 135.38 104.274 134.569 105.848C134.354 106.267 134.17 106.713 134.018 107.188C133.866 107.662 133.77 108.096 133.728 108.489L132.404 107.807C132.436 107.432 132.538 106.978 132.709 106.444C132.875 105.92 133.082 105.416 133.33 104.934ZM136.474 108.624C137.002 108.873 137.498 108.892 137.963 108.682C138.423 108.482 138.81 108.077 139.124 107.467C139.433 106.866 139.531 106.318 139.418 105.822C139.304 105.326 139.002 104.941 138.511 104.665L136.474 108.624Z" fill="white"/>
<path d="M126.668 115.316C126.996 114.897 127.395 114.488 127.865 114.089C128.334 113.69 128.758 113.423 129.135 113.29L130.428 114.305C129.988 114.467 129.537 114.718 129.075 115.058C128.621 115.405 128.243 115.771 127.939 116.157C127.636 116.544 127.447 116.851 127.372 117.079C127.306 117.313 127.365 117.502 127.55 117.648C127.695 117.762 127.85 117.805 128.014 117.778C128.18 117.765 128.382 117.682 128.619 117.53C128.857 117.392 129.2 117.154 129.648 116.815C130.164 116.44 130.605 116.168 130.971 116C131.331 115.84 131.676 115.772 132.008 115.798C132.34 115.838 132.684 115.997 133.038 116.275C133.618 116.73 133.873 117.301 133.802 117.987C133.74 118.68 133.403 119.417 132.79 120.198C132.474 120.601 132.121 120.968 131.73 121.299C131.342 121.645 130.991 121.877 130.677 121.995L129.433 121.018C129.768 120.891 130.115 120.688 130.475 120.412C130.835 120.135 131.158 119.815 131.442 119.453C131.752 119.058 131.945 118.729 132.023 118.464C132.108 118.206 132.042 117.992 131.825 117.821C131.68 117.707 131.522 117.668 131.351 117.703C131.183 117.753 130.996 117.841 130.793 117.968C130.597 118.1 130.256 118.353 129.769 118.725C129.24 119.117 128.785 119.391 128.403 119.546C128.02 119.702 127.669 119.751 127.349 119.695C127.029 119.639 126.699 119.478 126.361 119.213C125.846 118.808 125.605 118.261 125.639 117.572C125.674 116.897 126.017 116.145 126.668 115.316Z" fill="white"/>
<path d="M118.863 123.669C119.458 123.121 120.062 122.871 120.676 122.918C121.29 122.965 121.874 123.29 122.428 123.892L124.831 126.501L125.644 125.753L126.642 126.837L125.829 127.586L127.326 129.212L125.903 130.523L124.406 128.896L123.107 130.092L122.108 129.008L123.407 127.812L121.172 125.383C120.853 125.037 120.56 124.847 120.293 124.815C120.034 124.789 119.734 124.933 119.395 125.245C119.162 125.46 118.981 125.724 118.852 126.037L117.854 124.953C118.06 124.527 118.396 124.099 118.863 123.669Z" fill="white"/>
<path d="M108.283 140.221L106.565 140.967L106.21 140.151C105.995 140.657 105.708 141.089 105.35 141.445C104.991 141.802 104.535 142.101 103.981 142.341C103.296 142.639 102.621 142.754 101.955 142.686C101.284 142.632 100.68 142.398 100.143 141.984C99.6007 141.584 99.1745 141.027 98.8644 140.313C98.5584 139.609 98.442 138.918 98.5151 138.239C98.5789 137.563 98.8156 136.953 99.2255 136.406C99.63 135.873 100.175 135.458 100.86 135.16C101.376 134.936 101.895 134.794 102.416 134.735C102.932 134.689 103.413 134.743 103.859 134.895L102.231 131.149L104.005 130.378L108.283 140.221ZM101.902 136.364C101.264 136.642 100.828 137.077 100.595 137.669C100.361 138.262 100.385 138.882 100.667 139.53C100.948 140.178 101.383 140.613 101.972 140.838C102.56 141.062 103.174 141.035 103.812 140.758C104.319 140.537 104.71 140.205 104.986 139.762C105.262 139.318 105.38 138.832 105.34 138.302L104.746 136.937C104.396 136.542 103.962 136.289 103.446 136.179C102.924 136.082 102.409 136.144 101.902 136.364Z" fill="white"/>
<path d="M94.5498 149.534L92.6721 150L89.9426 138.987L91.8203 138.522L94.5498 149.534Z" fill="white"/>
<path d="M81.716 140.129C82.5929 140.052 83.3319 140.219 83.9329 140.628C84.5348 141.048 84.8702 141.651 84.939 142.436C85.0105 143.252 84.8012 143.912 84.3112 144.418C83.8212 144.923 83.097 145.218 82.1386 145.302C81.2107 145.383 80.3937 145.264 79.6877 144.946L79.7051 145.145C79.7507 145.665 79.9469 146.028 80.2938 146.234C80.6304 146.441 81.1556 146.513 81.8693 146.45C82.318 146.411 82.7575 146.326 83.1879 146.196C83.6192 146.076 83.9964 145.925 84.3195 145.742L84.4522 147.256C84.1588 147.426 83.7612 147.579 83.2594 147.715C82.7475 147.853 82.2519 147.942 81.7726 147.984C80.4981 148.096 79.5308 147.904 78.8708 147.407C78.2116 146.92 77.8396 146.192 77.7547 145.223L77.3619 140.742L79.1819 140.583L79.245 141.301C79.5342 140.968 79.8756 140.702 80.2692 140.503C80.6526 140.305 81.1348 140.18 81.716 140.129ZM81.3652 141.578C80.937 141.615 80.5567 141.731 80.2243 141.925C79.8928 142.128 79.6483 142.386 79.4906 142.698L79.5617 143.508C80.1573 143.857 80.8171 143.999 81.5411 143.936C82.5709 143.846 83.051 143.403 82.9813 142.608C82.9473 142.22 82.7944 141.941 82.5225 141.769C82.2404 141.599 81.8547 141.535 81.3652 141.578Z" fill="white"/>
<path d="M70.7035 148.053L68.8426 147.839L68.9563 146.848C68.5627 147.225 68.1159 147.483 67.6158 147.621C67.1146 147.77 66.5995 147.814 66.0708 147.753C65.0844 147.64 64.3781 147.286 63.9518 146.691C63.5243 146.106 63.3613 145.372 63.4628 144.487L63.9928 139.865L65.9147 140.086L65.4057 144.524C65.2832 145.592 65.7203 146.183 66.7168 146.297C67.1541 146.348 67.5781 146.288 67.989 146.119C68.3988 145.96 68.7598 145.687 69.072 145.3L69.6213 140.511L71.5432 140.731L70.7035 148.053Z" fill="white"/>
<path d="M55.3856 137.465C55.8934 137.624 56.417 137.853 56.9563 138.151C57.4957 138.449 57.8943 138.751 58.1521 139.058L57.66 140.625C57.3527 140.271 56.9584 139.938 56.4771 139.626C55.9927 139.323 55.5161 139.099 55.0474 138.952C54.5787 138.804 54.2246 138.736 53.9852 138.747C53.7428 138.767 53.5863 138.89 53.5158 139.114C53.4606 139.29 53.4747 139.45 53.5582 139.594C53.6288 139.745 53.7772 139.904 54.0035 140.072C54.217 140.246 54.5611 140.483 55.0357 140.782C55.5695 141.132 55.9797 141.449 56.2662 141.732C56.5431 142.012 56.728 142.312 56.8209 142.63C56.9011 142.956 56.8737 143.334 56.7388 143.763C56.518 144.466 56.0741 144.906 55.407 145.083C54.737 145.27 53.9283 145.214 52.9811 144.917C52.4928 144.763 52.0247 144.563 51.5769 144.315C51.1162 144.074 50.7753 143.827 50.554 143.575L51.0278 142.066C51.2655 142.334 51.5775 142.588 51.9637 142.827C52.3498 143.066 52.7626 143.255 53.2021 143.393C53.6806 143.543 54.0572 143.608 54.332 143.587C54.6038 143.576 54.781 143.438 54.8638 143.174C54.919 142.999 54.9 142.837 54.8068 142.69C54.7008 142.549 54.5526 142.406 54.3623 142.261C54.1689 142.125 53.812 141.895 53.2916 141.57C52.7383 141.214 52.3214 140.885 52.041 140.582C51.7605 140.28 51.59 139.969 51.5294 139.649C51.4688 139.33 51.5029 138.965 51.6317 138.555C51.8279 137.93 52.2544 137.511 52.9111 137.299C53.5549 137.094 54.3798 137.149 55.3856 137.465Z" fill="white"/>
<path d="M55.4985 91.835L66.5423 76.7833L49.6934 70.9298L53.941 61.4528L69.0909 66.8881V52.5332H81.4091V66.8881L96.559 61.3134L100.807 70.9298L83.9577 76.6439L95.1431 91.6957L85.5151 97.8279L75.3208 83.7517L65.1265 97.9672L55.4985 91.835Z" fill="white"/>
</svg>
