<svg width="30" height="30" viewBox="0 0 30 30" fill="none" xmlns="http://www.w3.org/2000/svg">
<path d="M29.985 7.88243C29.8519 10.7999 27.8137 14.7956 23.8687 19.8693C19.7906 25.1737 16.3387 27.8249 13.515 27.8249C11.7656 27.8249 10.2862 26.2106 9.07687 22.9818L6.65625 14.1056C5.75625 10.8749 4.7925 9.26243 3.76312 9.26243C3.54187 9.26243 2.75625 9.73681 1.41187 10.6762L0 8.85743C1.46843 7.56771 2.92722 6.26705 4.37625 4.95556C6.3525 3.24931 7.83562 2.35306 8.82562 2.26118C11.1562 2.03056 12.5944 3.62618 13.1344 7.04806C13.7156 10.7381 14.1206 13.0293 14.3456 13.9218C15.0206 16.9799 15.7631 18.5081 16.5694 18.5062C17.1956 18.5062 18.1369 17.5124 19.3969 15.5306C20.655 13.5468 21.3281 12.0374 21.4162 11.0024C21.5962 9.29056 20.9231 8.43368 19.3969 8.43368C18.6308 8.44491 17.8749 8.61139 17.175 8.92306C18.6544 4.09868 21.4706 1.75118 25.6275 1.88056C28.71 1.97431 30.1631 3.97681 29.985 7.88243Z" fill="white"/>
</svg>
