<svg width="100" height="100" viewBox="0 0 100 100" fill="none" xmlns="http://www.w3.org/2000/svg">
<rect width="100" height="100" rx="50" fill="#00BA34"/>
<path d="M71.2037 28.042C71.061 28.1337 65.2005 34.7076 58.1883 42.6372C51.176 50.5667 45.285 57.1508 45.1117 57.2527C44.8161 57.4362 44.755 57.4362 44.3982 57.3037C44.1434 57.212 42.5433 55.8156 39.5468 53.0943C35.5616 49.4557 35.0112 48.9869 34.3182 48.6607C33.6455 48.3448 33.4416 48.2938 32.5753 48.2632C31.0261 48.2021 30.0375 48.5588 28.9978 49.5475C28.3252 50.1896 27.7748 51.1782 27.5811 52.0853C27.3467 53.237 27.6321 54.7047 28.2844 55.6628C28.4373 55.887 31.3726 59.5154 34.8176 63.735C39.7506 69.7789 41.1775 71.4708 41.5954 71.746C42.3904 72.276 43.1446 72.5002 44.1027 72.5002C45.4276 72.5002 46.508 72.0518 47.4151 71.1141C47.6903 70.8389 52.6845 62.889 60.3694 50.5157C67.2491 39.4266 72.9873 30.1721 73.1198 29.9479C73.2421 29.7237 73.3542 29.4077 73.3542 29.2548C73.3542 28.8166 73.0586 28.2662 72.7019 28.0522C72.3044 27.8075 71.5604 27.7973 71.2037 28.042Z" fill="white"/>
</svg>
