<svg width="34" height="30" viewBox="0 0 34 30" fill="none" xmlns="http://www.w3.org/2000/svg">
<path d="M32.2064 7.27049C31.8383 5.88475 30.754 4.79338 29.3772 4.42301C26.8817 3.75 16.875 3.75 16.875 3.75C16.875 3.75 6.86838 3.75 4.37281 4.42301C2.99604 4.79344 1.9117 5.88475 1.54367 7.27049C0.875 9.78223 0.875 15.0227 0.875 15.0227C0.875 15.0227 0.875 20.2632 1.54367 22.775C1.9117 24.1607 2.99604 25.2066 4.37281 25.577C6.86838 26.25 16.875 26.25 16.875 26.25C16.875 26.25 26.8817 26.25 29.3772 25.577C30.754 25.2066 31.8383 24.1607 32.2064 22.775C32.875 20.2632 32.875 15.0227 32.875 15.0227C32.875 15.0227 32.875 9.78223 32.2064 7.27049ZM13.6023 19.7807V10.2647L21.9659 15.0229L13.6023 19.7807Z" fill="white"/>
</svg>
