<svg width="100" height="100" viewBox="0 0 100 100" fill="none" xmlns="http://www.w3.org/2000/svg">
<rect width="100" height="100" rx="10" fill="#1877F2"/>
<path d="M43.1614 41.9309C43.0926 39.4058 43.1154 36.8648 43.2298 34.3081C43.3302 32.0843 43.8687 30.0289 44.8453 28.1418C45.6256 26.6333 46.6863 25.3535 48.0275 24.3025C48.7297 23.7519 49.5244 23.2743 50.4117 22.8698C52.4039 21.9602 54.5216 21.5054 56.7649 21.5054C59.2175 21.5063 61.6705 21.511 64.124 21.5193C64.7007 21.5212 65.0843 21.7844 65.275 22.3089C65.3364 22.4773 65.3633 22.7382 65.3559 23.0916C65.3484 23.4366 65.3447 23.6124 65.3447 23.6189C65.3447 26.158 65.3461 28.6975 65.3489 31.2375C65.3489 31.816 65.1238 32.1969 64.6737 32.3801C64.3872 32.4963 63.9831 32.534 63.4614 32.4931C62.8596 32.4457 61.2227 32.4684 58.5506 32.5615C57.6234 32.594 56.9798 32.6912 56.6198 32.853C56.0097 33.1274 55.5991 33.5906 55.388 34.2425C55.2857 34.5578 55.2271 35.141 55.2122 35.992C55.1787 37.906 55.1829 39.8601 55.2247 41.8541C55.2255 41.8762 55.2346 41.8971 55.2502 41.9125C55.2658 41.9279 55.2867 41.9364 55.3085 41.9364C57.7926 41.9253 60.2866 41.9267 62.7903 41.9406C63.593 41.9453 64.0626 41.9662 64.1994 42.0034C64.7769 42.1634 65.0657 42.6205 65.0657 43.3748C65.0657 46.165 65.0657 48.9551 65.0657 51.7453C65.0657 52.0308 65.0573 52.2796 65.0406 52.4917C65.0155 52.8033 64.9457 53.0376 64.8313 53.1948C64.6648 53.4236 64.4175 53.5557 64.0891 53.591C63.4632 53.658 62.8354 53.691 62.2058 53.6901C59.8946 53.6854 57.6015 53.6682 55.3266 53.6385C55.314 53.6383 55.3015 53.6406 55.2899 53.6453C55.2782 53.65 55.2676 53.6569 55.2586 53.6657C55.2496 53.6746 55.2425 53.6851 55.2377 53.6967C55.2328 53.7083 55.2303 53.7207 55.2303 53.7333C55.2303 61.1505 55.2303 68.5096 55.2303 75.8106C55.2303 76.1259 55.2266 76.39 55.2192 76.603C55.2006 77.1211 55.1908 77.3838 55.1899 77.3912C55.1145 78.1697 54.6281 78.5594 53.7306 78.5603C50.6502 78.564 47.5694 78.5659 44.4881 78.5659C43.639 78.5659 43.1977 78.1511 43.1642 77.3215C43.1623 77.2787 43.154 77.1787 43.1391 77.0215C43.1316 76.9397 43.1279 76.8383 43.1279 76.7174C43.1279 69.1253 43.1279 61.4812 43.1279 53.7849C43.1279 53.7642 43.1197 53.7444 43.105 53.7297C43.0904 53.715 43.0705 53.7068 43.0498 53.7068C40.6809 53.6966 38.3005 53.6905 35.9083 53.6887C35.2322 53.6877 34.8146 53.4366 34.6556 52.9353C34.6072 52.7837 34.583 52.3601 34.583 51.6644C34.583 49.2091 34.583 46.7542 34.583 44.2997C34.583 43.5092 34.6072 43.0348 34.6556 42.8767C34.7876 42.4489 35.0908 42.1931 35.5651 42.1094C35.66 42.0927 36.0288 42.0843 36.6715 42.0843C38.778 42.0843 40.8916 42.0843 43.0121 42.0843C43.0321 42.0843 43.0519 42.0803 43.0702 42.0726C43.0886 42.0648 43.1053 42.0534 43.1192 42.0391C43.1331 42.0248 43.144 42.0079 43.1513 41.9893C43.1585 41.9707 43.162 41.9508 43.1614 41.9309Z" fill="white"/>
</svg>
