<svg width="30" height="30" viewBox="0 0 30 30" fill="none" xmlns="http://www.w3.org/2000/svg">
<path d="M6.45 9.1688C7.95 9.1688 9.15 7.95005 9.15 6.4688C9.15 4.98755 7.93125 3.7688 6.45 3.7688C4.96875 3.7688 3.75 4.98755 3.75 6.4688C3.75 7.95005 4.96875 9.1688 6.45 9.1688ZM11.7188 11.2125V26.25H16.3687V18.825C16.3687 16.8563 16.7438 14.9626 19.1625 14.9626C21.5813 14.9626 21.5813 17.2125 21.5813 18.9376V26.25H26.25V18.0001C26.25 13.95 25.3875 10.8375 20.6625 10.8375C18.3938 10.8375 16.875 12.0751 16.2563 13.2563H16.2V11.1938H11.7375L11.7188 11.2125ZM4.125 11.2125H8.79375V26.25H4.125V11.2125Z" fill="white"/>
</svg>
