<svg width="100" height="100" viewBox="0 0 100 100" fill="none" xmlns="http://www.w3.org/2000/svg">
<path d="M0 60.6328V22.791C0.121094 22.3769 0.298828 21.9896 0.533203 21.6289C0.91862 21.0325 1.47396 20.7662 2.19922 20.8301C3.85938 20.9759 5.51953 21.1217 7.17969 21.2675C10.5234 21.5631 13.8411 22.0351 17.1328 22.6836C18.5768 22.9687 19.9935 23.3548 21.3828 23.8418C22.3685 24.1868 23.3262 24.7233 24.2559 25.4511C24.6061 25.7259 24.8327 26.0534 24.9355 26.4336C24.9954 26.6549 24.998 27.0345 24.9434 27.5722C24.7194 29.7545 24.4251 31.709 24.0605 33.4355C22.8848 39.0045 21.5827 44.2129 20.1543 49.0605C18.7637 53.7754 17.666 57.5781 16.8613 60.4687C16.6751 61.1393 16.4538 61.6074 16.1973 61.873C15.791 62.291 15.2747 62.5 14.6484 62.5C10.5313 62.5 6.41341 62.5 2.29492 62.5C0.979818 62.5 0.214844 61.8776 0 60.6328Z" fill="#181B26"/>
<path d="M99.9999 26.9159V64.8065C99.8072 65.7974 99.3078 66.3931 98.5019 66.5936C98.3482 66.6314 97.6523 66.6503 96.414 66.6503C92.8814 66.6503 89.3489 66.6503 85.8163 66.6503C85.3293 66.6503 84.9381 66.5702 84.6425 66.41C84.1907 66.1652 83.8326 65.8248 83.5683 65.3886C83.4133 65.1346 83.2532 64.6828 83.0878 64.0331C82.8274 63.007 82.6015 62.1906 82.4101 61.5839C79.6093 52.7154 76.4882 44.134 73.0468 35.8397C72.496 34.5129 71.8124 33.1132 70.996 31.6405C70.8684 31.4113 70.8215 31.0409 70.8554 30.5292C70.8592 30.4671 70.8839 30.4068 70.9257 30.3573C71.1614 30.0813 71.4101 29.8176 71.6718 29.5663C71.9218 29.3254 72.2245 29.1418 72.58 29.0155C75.8964 27.8358 79.4211 26.9205 83.1542 26.2694C88.1008 25.4061 92.9595 24.996 97.7304 25.0389C98.3332 25.0442 98.7844 25.1412 99.0839 25.33C99.6151 25.6646 99.9205 26.1932 99.9999 26.9159Z" fill="#181B26"/>
<path d="M35.6621 45.4883C35.5891 45.4449 35.5277 45.3842 35.4831 45.3114C35.4386 45.2386 35.4122 45.1559 35.4062 45.0704C35.362 44.3764 35.4433 43.7338 35.6504 43.1426C36.5371 40.6257 37.9095 38.4102 39.7676 36.4961C40.7415 35.4935 41.9349 34.3757 43.3476 33.1426C44.5612 32.0827 45.8047 31.226 47.0781 30.5723C48.7474 29.7155 50.5189 29.42 52.3926 29.6856C53.0228 29.7741 53.6439 29.9004 54.2558 30.0645C54.7025 30.183 55.3001 30.3881 56.0488 30.6797C58.5775 31.6628 61.1074 32.6439 63.6387 33.6231C65.1491 34.2077 66.7532 34.7774 68.4512 35.3321C68.6686 35.4024 68.8268 35.5411 68.9258 35.7481C70.0599 38.14 71.1185 40.6407 72.1015 43.2501C74.3789 49.2956 76.5716 55.3725 78.6797 61.4805C78.6904 61.5121 78.6939 61.5448 78.6898 61.5752C78.6857 61.6057 78.6741 61.633 78.6562 61.6544C78.5573 61.7781 78.4453 61.767 78.3203 61.6211C76.3281 59.2839 74.0534 57.0014 71.4961 54.7735C68.9648 52.5678 66.7513 50.7123 64.8554 49.2071C62.7252 47.5144 59.3769 44.6478 54.8105 40.6075C54.8014 40.5997 54.7031 40.4974 54.5156 40.3008C54.3685 40.1446 54.192 40.0359 53.9863 39.9747C53.7259 39.8965 53.5859 39.8542 53.5664 39.8477C53.0755 39.6654 52.5742 39.5834 52.0625 39.6016C51.6836 39.6146 51.2057 39.7448 50.6289 39.9922C49.5364 40.4597 48.444 40.9271 47.3515 41.3946C47.2239 41.4493 47.0071 41.5085 46.7012 41.5723C46.5683 41.601 46.3476 41.6218 46.039 41.6348C45.1146 41.6752 44.3841 42.1198 43.8476 42.9688C43.457 43.5873 42.9635 44.1713 42.3672 44.7208C41.7487 45.2898 41.1191 45.7038 40.4785 45.9629C38.873 46.6101 37.2676 46.4519 35.6621 45.4883Z" fill="#181B26"/>
<path d="M35.8163 50.375C38.522 50.9922 41.0487 50.5052 43.3964 48.9141C44.5279 48.1458 45.6014 47.1497 46.6171 45.9258C46.6368 45.9018 46.6613 45.8823 46.6889 45.8685C46.7165 45.8546 46.7466 45.8469 46.7772 45.8457C47.6535 45.7988 48.5813 45.5723 49.5604 45.166C49.8026 45.0658 49.9823 44.9486 50.0995 44.8145C50.1425 44.765 50.1919 44.7266 50.2479 44.6992L51.1835 44.2363C51.2103 44.2235 51.2396 44.2179 51.2679 44.2204C51.2962 44.2228 51.3225 44.2331 51.3436 44.25C53.509 45.9714 55.6574 47.7129 57.7889 49.4746C58.8566 50.3574 59.8651 51.179 60.8143 51.9395C64.8924 55.2077 67.843 57.6413 69.6659 59.2402C71.1047 60.5033 72.4556 61.8542 73.7186 63.293C74.2043 63.8464 74.7492 64.6686 75.3534 65.7598C75.8052 66.5736 75.8625 67.4362 75.5253 68.3477C75.382 68.7357 75.1594 69.0286 74.8573 69.2266C74.5995 69.3971 74.2772 69.5391 73.8905 69.6523C73.5585 69.7487 73.2238 69.7578 72.8866 69.6797C72.6249 69.6198 72.3553 69.4512 72.078 69.1738C68.2225 65.3171 64.3664 61.4609 60.5096 57.6055C59.6893 56.7852 58.8475 56.6367 57.9842 57.1602C57.5311 57.4349 57.2095 57.7865 57.0194 58.2148C56.7967 58.7161 56.8046 59.2292 57.0428 59.7539C57.1848 60.0651 57.4497 60.4043 57.8378 60.7715C58.1919 61.1074 58.3742 61.2806 58.3846 61.291C61.9419 64.8483 65.5122 68.4186 69.0956 72.002C69.1169 72.023 69.1304 72.0507 69.1336 72.0803C69.1368 72.1099 69.1296 72.1395 69.1132 72.1641C68.1887 73.5938 66.8632 74.2135 65.1366 74.0234C64.7043 73.9766 64.3436 73.8496 64.0546 73.6426C64.035 73.6283 63.7733 73.3678 63.2694 72.8613C60.1522 69.7246 57.0181 66.6048 53.8671 63.502C53.4921 63.1335 53.1385 62.901 52.8065 62.8047C51.9302 62.5456 51.2023 62.8145 50.6229 63.6113C50.1802 64.2194 50.0806 64.832 50.3241 65.4492C50.4478 65.7591 50.798 66.2025 51.3749 66.7793C54.3553 69.7598 57.3378 72.7422 60.3221 75.7266C60.3436 75.7481 60.3592 75.7748 60.3674 75.8042C60.3756 75.8336 60.3761 75.8647 60.369 75.8945C60.0682 77.2187 59.2974 78.0436 58.0565 78.3691C57.5904 78.4915 57.1249 78.4863 56.66 78.3535C56.3306 78.2585 55.9803 78.0286 55.6092 77.6641C53.0441 75.1458 50.4947 72.6113 47.9608 70.0605C47.4478 69.5436 47.007 69.2207 46.6385 69.0918C45.9953 68.8678 45.41 68.9557 44.8827 69.3555C44.3918 69.7266 44.0962 70.1986 43.996 70.7715C43.8827 71.4121 44.0897 71.9954 44.6171 72.5215C46.7733 74.679 48.9439 76.8503 51.1288 79.0352C51.1965 79.1029 51.1828 79.1387 51.0878 79.1426C50.4875 79.166 49.9595 79.1471 49.5038 79.0859C48.1366 78.8997 46.8651 78.4915 45.6893 77.8613C45.1971 77.5983 44.1288 76.8561 42.4842 75.6348C37.0936 71.6322 31.8059 67.4974 26.621 63.2305C25.6965 62.4687 24.8462 61.6836 24.0702 60.875C23.2902 60.0625 22.5194 59.2409 21.7577 58.4102C21.7376 58.3883 21.7237 58.3614 21.7175 58.3322C21.7113 58.303 21.7131 58.2726 21.7225 58.2441C24.3827 50.1022 26.5806 41.8418 28.3163 33.4629C28.323 33.4309 28.3406 33.4023 28.3662 33.3816C28.3918 33.361 28.4238 33.3497 28.4569 33.3496H36.496C36.6275 33.3496 36.647 33.3965 36.5546 33.4902C34.0428 36.0267 32.2297 38.9948 31.1151 42.3945C30.8547 43.1914 30.7264 44.0332 30.7303 44.9199C30.7355 45.8496 30.9107 46.6654 31.2557 47.3672C31.6971 48.2656 32.3482 48.9603 33.2089 49.4512C33.8495 49.8171 34.7186 50.125 35.8163 50.375Z" fill="#181B26"/>
</svg>
