<svg width="48" height="17" viewBox="0 0 48 17" fill="none" xmlns="http://www.w3.org/2000/svg">
<path d="M22.8346 0.0440206C19.881 0.464409 17.4061 2.40551 16.3131 5.16179C16.0682 5.78324 15.9147 6.36812 15.8123 7.09923C15.7429 7.57446 15.7429 8.73692 15.8087 9.23773C16.134 11.6358 17.4573 13.7414 19.4679 15.061C20.2026 15.5399 21.2883 15.9968 22.1401 16.1833C23.2441 16.4245 24.582 16.4319 25.664 16.2016C27.225 15.8726 28.7164 15.0464 29.8314 13.8949C31.0085 12.6776 31.7286 11.2519 32.0466 9.5119C32.1453 8.9855 32.1453 7.36974 32.0466 6.84335C31.7176 5.04847 30.9792 3.61549 29.7436 2.37992C28.5117 1.148 27.0678 0.402265 25.2985 0.0805761C24.8233 -0.00715708 23.3428 -0.0290904 22.8346 0.0440206ZM24.8233 0.650842C25.9601 0.775131 27.1263 1.20283 28.1096 1.85717C29.941 3.07082 31.1474 4.98267 31.4581 7.15407C31.5275 7.65488 31.5275 8.70037 31.4581 9.20118C31.1035 11.687 29.5645 13.8291 27.3163 14.9587C25.7445 15.7483 23.8911 15.9603 22.173 15.5472C21.1238 15.2913 20.0418 14.7576 19.1937 14.074C18.8647 13.8072 18.2835 13.2223 18.0203 12.8933C17.1832 11.8478 16.6275 10.5464 16.4338 9.19386C16.3643 8.70402 16.3643 7.65122 16.4338 7.16138C16.7884 4.66829 18.3164 2.53711 20.5645 1.40023C21.8659 0.742231 23.3281 0.486342 24.8233 0.650842Z" fill="white"/>
<path d="M23.0905 2.52993C21.8293 2.73464 20.7619 3.28297 19.8809 4.17858C19.084 4.98646 18.5941 5.904 18.3456 7.04454C18.2761 7.37719 18.2651 7.53072 18.2651 8.19603C18.2651 8.84672 18.2798 9.01853 18.3456 9.32194C18.7842 11.3142 20.1222 12.8569 22.0157 13.5551C22.4325 13.7086 22.5897 13.6976 22.6847 13.5112C22.8163 13.259 22.7103 13.1274 22.257 12.9702C20.4585 12.3414 19.1388 10.6964 18.8975 8.77727C18.8135 8.09002 18.9049 7.21269 19.1315 6.55104C19.6616 5.0157 20.8862 3.824 22.4471 3.32319C23.0027 3.14772 23.5035 3.08192 24.1469 3.10751C25.4666 3.15869 26.5888 3.65218 27.5283 4.59532C28.2521 5.31546 28.7017 6.14161 28.9211 7.13592C29.0161 7.56728 29.049 8.32398 28.9942 8.77727C28.7493 10.7001 27.4186 12.3597 25.6238 12.9665C25.2509 13.0945 25.1156 13.2005 25.1156 13.365C25.1156 13.4235 25.1485 13.5112 25.1924 13.566C25.3313 13.7415 25.6859 13.6794 26.3841 13.3467C28.0291 12.5644 29.2281 11.0108 29.5608 9.21959C29.6668 8.6676 29.6558 7.56728 29.5425 7.04454C29.0563 4.77444 27.3528 3.06364 25.0974 2.58476C24.6148 2.48241 23.5657 2.45316 23.0905 2.52993Z" fill="white"/>
<path d="M23.1269 3.92251C22.988 3.9481 22.871 3.97734 22.8673 3.981C22.8564 3.99196 23.4705 5.53095 23.7483 6.19626C23.8397 6.41194 23.8543 6.42656 23.953 6.41559C24.059 6.40462 24.0737 6.37904 24.5525 5.20195C24.8231 4.54029 25.0351 3.99196 25.0314 3.98465C25.0241 3.97734 24.8889 3.9481 24.7353 3.91885C24.3807 3.8494 23.4742 3.85305 23.1269 3.92251Z" fill="white"/>
<path d="M21.9501 4.33567C21.7673 4.43072 21.5224 4.58059 21.4018 4.66833C21.1678 4.84014 20.6926 5.28246 20.6926 5.32998C20.6926 5.34461 21.1167 5.73575 21.6357 6.19635C22.6885 7.13582 22.7543 7.20162 22.8092 7.34785C22.9152 7.62201 22.7946 7.97295 22.535 8.15207C22.3888 8.25442 22.3486 8.26173 21.018 8.4043C20.2649 8.48838 19.6471 8.55783 19.6398 8.56515C19.6033 8.59073 19.7275 9.19756 19.8372 9.52655C19.9688 9.92135 20.2357 10.4807 20.2978 10.4807C20.3161 10.4807 20.8206 10.1626 21.4164 9.77148C22.0123 9.38399 22.5533 9.03671 22.6191 9.00381C23.0139 8.80276 23.5805 9.161 23.5805 9.61063C23.5805 9.67278 23.4306 10.3088 23.2478 11.018C23.0651 11.7272 22.9225 12.334 22.9335 12.3596C22.981 12.4839 24.1764 12.5351 24.7283 12.4364C24.8855 12.4108 25.0208 12.3779 25.0318 12.3669C25.0427 12.3596 24.8965 11.7674 24.7101 11.0582C24.4798 10.1882 24.3701 9.70933 24.3738 9.5887C24.3811 9.25239 24.7101 8.94532 25.0647 8.94532C25.2547 8.94532 25.2986 8.97091 26.5744 9.76417C27.1447 10.1188 27.6272 10.4075 27.6418 10.4075C27.7405 10.4075 28.1134 9.46075 28.2011 8.98188C28.2815 8.5688 28.2779 8.43355 28.1901 8.43355C28.033 8.43355 25.6715 8.28732 25.5289 8.26905C25.2072 8.22518 24.9367 7.90715 24.9331 7.57084C24.9331 7.27839 25.0244 7.17604 26.1394 6.25484C26.7133 5.77962 27.1849 5.37019 27.1922 5.34461C27.2068 5.28246 26.7023 4.81455 26.3916 4.60253C26.1065 4.41244 25.5947 4.14193 25.5691 4.16752C25.5582 4.17483 25.3425 4.70123 25.0829 5.32998C24.827 5.96239 24.5894 6.52535 24.5565 6.58749C24.3299 7.02616 23.7669 7.10658 23.4489 6.74468C23.3831 6.67157 23.2405 6.37547 23.0943 6.01723C22.9591 5.68823 22.7361 5.13989 22.5972 4.79627C22.4582 4.45631 22.3303 4.17483 22.3157 4.16752C22.2974 4.16386 22.1329 4.23697 21.9501 4.33567ZM24.169 7.75727C24.403 7.88156 24.4871 8.19593 24.3482 8.42258C24.1654 8.72599 23.7267 8.72599 23.5439 8.42258C23.2954 8.01681 23.745 7.53794 24.169 7.75727Z" fill="white"/>
<path d="M20.1292 6.12685C20.0342 6.30963 19.9099 6.60207 19.8478 6.77754C19.6686 7.30394 19.5736 7.99484 19.6796 7.99484C19.8587 7.99849 22.2202 7.72067 22.2568 7.69143C22.3811 7.59273 22.3006 7.50134 21.3502 6.66056C20.8275 6.19631 20.3778 5.81613 20.3522 5.80882C20.323 5.80151 20.2316 5.93676 20.1292 6.12685Z" fill="white"/>
<path d="M26.5046 6.64599C25.4993 7.48676 25.4006 7.59277 25.5249 7.69147C25.5761 7.73168 28.2154 7.9035 28.2519 7.8706C28.2921 7.83038 28.1788 7.20529 28.0692 6.86532C27.9522 6.48514 27.6122 5.80155 27.5501 5.80155C27.5281 5.80521 27.0566 6.18173 26.5046 6.64599Z" fill="white"/>
<path d="M21.734 10.2064C21.1308 10.6012 20.6337 10.9338 20.6264 10.9521C20.6081 11.0033 21.2222 11.5626 21.511 11.7563C21.8546 11.9903 22.3299 12.2206 22.3701 12.1767C22.4176 12.1219 23.0354 9.67632 23.0244 9.59224C22.9988 9.40215 22.8672 9.4643 21.734 10.2064Z" fill="white"/>
<path d="M24.9327 9.54858C24.8961 9.59244 24.9546 9.84833 25.2288 10.8902C25.4115 11.5993 25.5687 12.1842 25.5724 12.1915C25.5943 12.2171 26.1317 11.9247 26.3949 11.7492C26.7093 11.5372 27.3234 10.9487 27.3015 10.8829C27.2795 10.8171 25.1301 9.49374 25.046 9.49374C25.0094 9.49374 24.9583 9.51933 24.9327 9.54858Z" fill="white"/>
<path d="M23.171 13.3321C23.0723 13.4308 23.0613 13.4637 23.0796 13.5953C23.1088 13.8036 23.2112 13.8987 23.4195 13.8987C23.5585 13.8987 23.6023 13.8804 23.6754 13.7963C23.7997 13.6501 23.7924 13.4673 23.6572 13.3284C23.5073 13.1785 23.3245 13.1822 23.171 13.3321Z" fill="white"/>
<path d="M24.2344 13.3282C24.1577 13.4086 24.1284 13.4708 24.1284 13.5695C24.1284 13.7559 24.2893 13.9167 24.4757 13.9167C24.6621 13.9167 24.823 13.7559 24.823 13.5695C24.823 13.4708 24.7937 13.4086 24.717 13.3282C24.5671 13.182 24.3843 13.182 24.2344 13.3282Z" fill="white"/>
<path d="M39.1756 12.8029C39.255 12.9343 39.3809 13 39.5534 13C39.6328 13 39.7314 12.9836 39.7725 12.9617C39.8628 12.9124 44.3039 8.46581 44.3477 8.38093C44.386 8.30427 44.386 8.05784 44.3477 7.98118C44.3039 7.8963 39.8628 3.44973 39.7725 3.40044C39.7314 3.37854 39.6328 3.36211 39.5534 3.36211C39.2878 3.36211 39.1208 3.52913 39.1208 3.79472C39.1208 3.87412 39.1345 3.96722 39.1509 4.00007C39.1674 4.03293 40.1065 4.98851 41.24 6.11931L43.2963 8.18106L41.24 10.2401C40.1065 11.3736 39.1674 12.3292 39.1509 12.362C39.1016 12.4606 39.1153 12.7016 39.1756 12.8029Z" fill="white"/>
<path d="M42.68 12.8029C42.7594 12.9343 42.8853 13 43.0578 13C43.1372 13 43.2358 12.9836 43.2769 12.9617C43.3672 12.9124 47.8083 8.46581 47.8521 8.38093C47.8904 8.30427 47.8904 8.05784 47.8521 7.98118C47.8083 7.8963 43.3672 3.44973 43.2769 3.40044C43.2358 3.37854 43.1372 3.36211 43.0578 3.36211C42.7922 3.36211 42.6252 3.52913 42.6252 3.79472C42.6252 3.87412 42.6389 3.96722 42.6553 4.00007C42.6717 4.03293 43.6109 4.98851 44.7444 6.11931L46.8007 8.18106L44.7444 10.2401C43.6109 11.3736 42.6717 12.3292 42.6553 12.362C42.606 12.4606 42.6197 12.7016 42.68 12.8029Z" fill="white"/>
<path d="M8.70529 12.8029C8.62589 12.9343 8.49994 13 8.32745 13C8.24804 13 8.14947 12.9836 8.1084 12.9617C8.01805 12.9124 3.57695 8.46581 3.53314 8.38093C3.49481 8.30427 3.49481 8.05784 3.53314 7.98118C3.57695 7.8963 8.01805 3.44973 8.1084 3.40044C8.14947 3.37854 8.24804 3.36211 8.32745 3.36211C8.59304 3.36211 8.76006 3.52913 8.76006 3.79472C8.76006 3.87412 8.74637 3.96722 8.72994 4.00007C8.71351 4.03293 7.77436 4.98851 6.64082 6.11931L4.58455 8.18106L6.64082 10.2401C7.77436 11.3736 8.71351 12.3292 8.72994 12.362C8.77922 12.4606 8.76553 12.7016 8.70529 12.8029Z" fill="white"/>
<path d="M5.2009 12.8029C5.1215 12.9343 4.99555 13 4.82305 13C4.74365 13 4.64508 12.9836 4.60401 12.9617C4.51365 12.9124 0.0725582 8.46581 0.0287496 8.38093C-0.00958292 8.30427 -0.00958291 8.05784 0.0287496 7.98118C0.0725582 7.8963 4.51365 3.44973 4.60401 3.40044C4.64508 3.37854 4.74365 3.36211 4.82305 3.36211C5.08864 3.36211 5.25566 3.52913 5.25566 3.79472C5.25566 3.87412 5.24197 3.96722 5.22554 4.00007C5.20911 4.03293 4.26997 4.98851 3.13642 6.11931L1.08016 8.18106L3.13642 10.2401C4.26997 11.3736 5.20911 12.3292 5.22554 12.362C5.27483 12.4606 5.26114 12.7016 5.2009 12.8029Z" fill="white"/>
</svg>
