<svg width="100" height="100" viewBox="0 0 100 100" fill="none" xmlns="http://www.w3.org/2000/svg">
<path d="M37.8789 81.8183C40.3893 81.8183 42.4244 79.7831 42.4244 77.2728V55.9092H52.1971C62.5986 55.9092 71.0608 47.447 71.0608 37.0455C71.0608 26.644 62.5986 18.1819 52.1971 18.1819C52.1523 18.1819 52.108 18.1825 52.0638 18.1837H37.885C37.8829 18.1837 37.8811 18.1834 37.8789 18.1834C35.3686 18.1834 33.3335 20.2186 33.3335 22.7289V51.3637V77.2728C33.3335 79.7831 35.3686 81.8183 37.8789 81.8183ZM52.1971 27.2746C52.2341 27.2746 52.2705 27.2743 52.3074 27.2734C57.6453 27.3328 61.9699 31.6937 61.9699 37.0455C61.9699 42.4343 57.5856 46.8182 52.1971 46.8182H42.4244V27.2746H52.1971Z" fill="white"/>
<path d="M98.6685 1.33121C97.8161 0.478788 96.66 0 95.4542 0L4.54515 0.00484849C2.03485 0.00515152 0 2.04 0 4.5503V95.4545C0 97.9649 2.03515 100 4.54545 100H95.4545C97.9649 100 100 97.9649 100 95.4545V4.54545C100 3.3397 99.5212 2.18364 98.6685 1.33121ZM90.9091 90.9091H9.09091V9.09545L90.9091 9.09121V90.9091Z" fill="white"/>
</svg>
