<svg width="100" height="100" viewBox="0 0 100 100" fill="none" xmlns="http://www.w3.org/2000/svg">
<g clip-path="url(#clip0_301_1692)">
<path d="M100 18.5176L100.004 37.4629C99.5247 40.6869 97.6191 42.2617 94.2871 42.1875C92.4355 42.1458 90.2422 42.1654 87.707 42.2461C87.6809 42.2466 87.6561 42.2573 87.6378 42.276C87.6196 42.2946 87.6093 42.3196 87.6093 42.3457C87.5963 55.9837 87.5924 69.6224 87.5976 83.2617C87.5976 83.9336 87.5423 84.4089 87.4316 84.6875C87.2194 85.2188 86.8327 85.5586 86.2715 85.707C85.7975 85.8307 85.3548 85.7943 84.9433 85.5977C84.4837 85.3776 84.1803 85.0026 84.0332 84.4727C83.9498 84.1719 83.9134 83.7865 83.9238 83.3164C83.9316 82.9245 83.9355 82.7181 83.9355 82.6973C83.9355 69.2585 83.9355 55.7982 83.9355 42.3164C83.9355 42.2822 83.9219 42.2494 83.8978 42.2253C83.8736 42.2011 83.8408 42.1875 83.8066 42.1875C81.4355 42.1875 79.0859 42.1992 76.7578 42.2227C74.97 42.2409 73.5579 41.5579 72.5215 40.1738C71.8847 39.3223 71.5612 38.3372 71.5507 37.2188C71.5 31.2656 71.5058 25.3125 71.5683 19.3594C71.5787 18.3893 71.6744 17.6367 71.8554 17.1016C72.3789 15.556 73.4095 14.5365 74.9472 14.043C75.5175 13.8607 76.3769 13.7695 77.5254 13.7695C83.0254 13.7695 88.5254 13.7695 94.0254 13.7695C95.1504 13.7695 95.9987 13.86 96.5703 14.041C98.5781 14.6751 99.7213 16.1673 100 18.5176ZM79.2343 19.7168C79.1132 19.8991 79.0527 20.1003 79.0527 20.3203C79.0527 25.3932 79.0553 30.4688 79.0605 35.5469C79.0605 36.3477 79.4655 36.7311 80.2754 36.6973C80.6972 36.679 81.1185 36.6862 81.539 36.7188C82.4375 36.7865 82.8899 36.3796 82.8965 35.498C82.9043 34.2832 82.9088 33.0684 82.9101 31.8535C82.9101 31.4212 82.9147 31.1823 82.9238 31.1367C82.9902 30.8229 83.2135 30.6654 83.5937 30.6641C85.2929 30.6576 86.5455 30.6165 87.3515 30.541C88.3281 30.4499 89.1588 30.2305 89.8437 29.8828C90.5521 29.5234 91.1276 29.0111 91.5703 28.3457C91.9531 27.7689 92.2148 27.0697 92.3554 26.248C92.5026 25.3809 92.5026 24.5156 92.3554 23.6523C92.1953 22.7174 91.8691 21.9395 91.3769 21.3184C90.6751 20.4355 89.7181 19.8711 88.5058 19.625C88.2389 19.5703 87.9713 19.5163 87.7031 19.4629C87.4375 19.4108 87.1692 19.3796 86.8984 19.3691C84.6419 19.2819 82.3847 19.2428 80.1269 19.252C79.7363 19.2533 79.4388 19.4082 79.2343 19.7168Z" fill="#181B26"/>
<path d="M83.0195 22.8067C83.1784 22.5762 83.4062 22.4694 83.7031 22.4864C83.9336 22.4994 84.0573 22.5052 84.0742 22.5039C84.9258 22.4831 85.7754 22.5065 86.623 22.5742C87.7194 22.6628 88.3822 23.2149 88.6113 24.2305C88.7025 24.6407 88.7077 25.0658 88.627 25.5059C88.5384 25.9851 88.3678 26.3601 88.1152 26.6309C87.89 26.8705 87.612 27.0345 87.2813 27.1231C87.151 27.1582 86.8411 27.2045 86.3516 27.2617C85.681 27.3399 84.8268 27.3835 83.7891 27.3926C83.2096 27.3978 82.9186 27.1374 82.916 26.6114C82.9121 25.5866 82.9102 24.4336 82.9102 23.1524C82.9102 23.0291 82.9484 22.9084 83.0195 22.8067Z" fill="#181B26"/>
<path d="M0 48.8652V46.3261C0.191406 44.6386 1.02083 43.6705 2.48828 43.4218C2.96484 43.3411 3.57813 43.3899 4.32813 43.5683C5.41536 43.8274 6.49414 44.1152 7.56445 44.4316C7.60571 44.4441 7.65013 44.4408 7.68911 44.4224C7.72809 44.404 7.75884 44.3718 7.77539 44.332C8.77669 41.8762 9.77539 39.4472 10.7715 37.0449C11.3809 35.5735 11.6868 34.8352 11.6895 34.83C12.0592 34.0813 12.5208 33.4212 13.0742 32.8496C14.4258 31.4485 16.0273 30.597 17.8789 30.2949C18.3646 30.2154 19.6641 30.1757 21.7773 30.1757C30.5833 30.1744 39.3887 30.1666 48.1934 30.1523C50.5215 30.1497 52.849 30.1738 55.1758 30.2246C55.9284 30.2402 56.6589 30.3762 57.3672 30.6328C59.03 31.2356 60.3698 32.2018 61.3867 33.5312C61.8372 34.1197 62.3555 35.1256 62.9414 36.5488C64.0156 39.1581 65.0801 41.7623 66.1348 44.3613C66.1514 44.4021 66.1826 44.4353 66.2223 44.4544C66.262 44.4735 66.3073 44.4772 66.3496 44.4648C67.0658 44.2525 67.7689 44.0533 68.459 43.8671C69.5944 43.5624 70.3047 43.3958 70.5899 43.3671C71.9141 43.2343 72.8893 43.7447 73.5156 44.8984C73.7578 45.3463 73.9063 45.9387 73.9609 46.6757C74.0378 47.7356 74.026 48.5507 73.9258 49.121C73.5482 51.276 72.1589 52.457 69.7578 52.664C69.734 52.6658 69.7109 52.6733 69.6905 52.6858C69.6702 52.6983 69.6531 52.7155 69.6407 52.7359C69.6282 52.7563 69.6209 52.7794 69.6192 52.8033C69.6175 52.8271 69.6215 52.851 69.6309 52.873C70.834 55.7232 71.5866 58.6412 71.8887 61.6269C71.9772 62.5019 72.0215 63.802 72.0215 65.5273C72.0215 71.0768 72.0208 76.6269 72.0195 82.1777C72.0195 82.5839 71.9668 82.9791 71.8613 83.3632C71.7598 83.7369 71.5951 84.0943 71.3672 84.4355C70.7682 85.3326 69.9688 85.8951 68.9688 86.123C68.6302 86.1998 67.7005 86.2389 66.1797 86.2402C65.1641 86.2415 64.1491 86.2298 63.1348 86.205C62.416 86.1881 61.8464 86.0872 61.4258 85.9023C60.53 85.5104 59.8698 84.8756 59.4453 83.998C59.237 83.5657 59.1152 82.985 59.0801 82.2558C59.0124 80.8378 58.9987 79.3619 59.0391 77.8281C59.0399 77.8032 59.0356 77.7785 59.0265 77.7553C59.0174 77.7321 59.0038 77.7109 58.9863 77.6931C58.9688 77.6752 58.9478 77.661 58.9247 77.6513C58.9016 77.6416 58.8767 77.6367 58.8516 77.6367H15.0117C14.9801 77.6367 14.9498 77.6492 14.9275 77.6716C14.9051 77.6939 14.8926 77.7242 14.8926 77.7558C14.8926 79.1738 14.8783 80.5989 14.8496 82.0312C14.8132 83.9374 14.0098 85.2285 12.4395 85.9042C12.0085 86.0891 11.4473 86.1907 10.7559 86.2089C9.18815 86.2519 7.62044 86.2525 6.05273 86.2109C5.29232 86.1913 4.69076 86.0846 4.24805 85.8906C3.26497 85.4609 2.57878 84.7525 2.18945 83.7656C2.00195 83.289 1.90234 82.5755 1.89063 81.6249C1.79297 73.3098 1.79753 67.2929 1.9043 63.5742C2.01107 59.8489 2.80404 56.2818 4.2832 52.873C4.29292 52.8508 4.2972 52.8266 4.29568 52.8024C4.29416 52.7782 4.2869 52.7547 4.27448 52.7339C4.26207 52.7131 4.24486 52.6955 4.2243 52.6827C4.20374 52.6698 4.18041 52.6621 4.15625 52.6601C1.67969 52.4348 0.294271 51.1699 0 48.8652ZM12.4785 45.7343C11.9056 47.138 11.3385 48.5436 10.7773 49.9511C10.4818 50.692 10.3353 51.2382 10.3379 51.5898C10.3418 52.3007 10.6738 52.8242 11.334 53.1601C11.6087 53.2994 11.9512 53.3782 12.3613 53.3964C12.653 53.4108 13.0085 53.4179 13.4277 53.4179C29.3132 53.4179 45.1986 53.4335 61.084 53.4648C61.5853 53.4648 62.0287 53.388 62.4141 53.2343C63.1432 52.9453 63.5319 52.4251 63.5801 51.6738C63.5944 51.4394 63.5606 51.1744 63.4785 50.8789C63.4056 50.6184 63.3171 50.3626 63.2129 50.1113C61.3652 45.6399 59.5287 41.1634 57.7031 36.6816C57.0729 35.1373 56.0078 34.1119 54.5078 33.6054C54.0013 33.4348 53.2962 33.3496 52.3926 33.3496C42.0749 33.3496 31.7565 33.3496 21.4375 33.3496C20.5781 33.3496 19.9049 33.4342 19.418 33.6035C18.5573 33.9042 17.8184 34.3886 17.2012 35.0566C16.8652 35.4199 16.5462 35.9596 16.2441 36.6757C14.9694 39.6874 13.7142 42.707 12.4785 45.7343ZM23.6289 63.3476C23.6289 63.127 23.5855 62.9086 23.501 62.7048C23.4166 62.501 23.2929 62.3159 23.1369 62.1599C22.981 62.0039 22.7958 61.8802 22.592 61.7958C22.3882 61.7114 22.1698 61.6679 21.9492 61.6679H11.0078C10.5623 61.6679 10.1351 61.8449 9.82009 62.1599C9.50509 62.4749 9.32813 62.9021 9.32813 63.3476V68.4843C9.32813 68.9298 9.50509 69.357 9.82009 69.672C10.1351 69.987 10.5623 70.164 11.0078 70.164H21.9492C22.1698 70.164 22.3882 70.1206 22.592 70.0361C22.7958 69.9517 22.981 69.828 23.1369 69.672C23.2929 69.5161 23.4166 69.3309 23.501 69.1271C23.5855 68.9233 23.6289 68.7049 23.6289 68.4843V63.3476ZM64.4531 63.3144C64.4531 63.0984 64.4106 62.8846 64.3279 62.6851C64.2453 62.4855 64.1242 62.3042 63.9715 62.1515C63.8187 61.9988 63.6375 61.8777 63.4379 61.795C63.2384 61.7124 63.0246 61.6699 62.8086 61.6699H51.8399C51.6239 61.6699 51.41 61.7124 51.2105 61.795C51.011 61.8777 50.8297 61.9988 50.677 62.1515C50.5243 62.3042 50.4031 62.4855 50.3205 62.6851C50.2379 62.8846 50.1953 63.0984 50.1953 63.3144V68.5175C50.1953 68.9537 50.3686 69.372 50.677 69.6804C50.9854 69.9888 51.4037 70.1621 51.8399 70.1621H62.8086C63.2448 70.1621 63.663 69.9888 63.9715 69.6804C64.2799 69.372 64.4531 68.9537 64.4531 68.5175V63.3144Z" fill="#181B26"/>
</g>
<defs>
<clipPath id="clip0_301_1692">
<rect width="100" height="100" fill="white"/>
</clipPath>
</defs>
</svg>
