<svg width="30" height="30" viewBox="0 0 30 30" fill="none" xmlns="http://www.w3.org/2000/svg">
<g clip-path="url(#clip0_301_1781)">
<path d="M2.28805 2.27529L3.60055 1.13779C5.11305 -0.374707 7.56306 -0.374707 9.07556 1.13779C9.11306 1.17529 11.4256 4.18779 11.4256 4.18779C12.8506 5.68779 12.8506 8.05029 11.4256 9.53779L9.97556 11.3628C11.8006 15.5003 14.6381 18.3503 18.6381 20.0503L20.4631 18.5878C21.9506 17.1503 24.3256 17.1503 25.8131 18.5878C25.8131 18.5878 28.8256 20.9003 28.8631 20.9378C30.3756 22.4503 30.3756 24.9003 28.9256 26.3503L27.6756 27.7878C26.2381 29.2253 24.3006 30.0128 22.2006 30.0128C12.6506 30.0128 0.000554084 17.3503 0.000554084 7.81279C0.000554084 5.72529 0.788054 3.77529 2.28805 2.28779V2.27529ZM22.2006 27.5003C23.6256 27.5003 24.9381 26.9753 25.8381 26.0628L27.0881 24.6253C27.6006 24.1128 27.6256 23.2753 27.1381 22.7378C27.1381 22.7378 24.1506 20.4378 24.1131 20.4003C23.6006 19.8878 22.7006 19.8878 22.1756 20.4003C22.1381 20.4378 19.6256 22.4503 19.6256 22.4503C19.2756 22.7253 18.8131 22.8003 18.4006 22.6378C13.2256 20.6628 9.51306 16.9628 7.37556 11.6253C7.21305 11.2128 7.27555 10.7378 7.56305 10.3753C7.56305 10.3753 9.57556 7.85029 9.60056 7.82529C10.1381 7.28779 10.1381 6.42529 9.60056 5.88779C9.56306 5.85029 7.26305 2.86279 7.26305 2.86279C6.72555 2.37529 5.88806 2.38779 5.31306 2.96279L4.00056 4.10029C3.03806 5.06279 2.50055 6.37529 2.50055 7.80029C2.50055 16.5003 14.7131 27.5003 22.2006 27.5003Z" fill="black"/>
</g>
<defs>
<clipPath id="clip0_301_1781">
<rect width="30" height="30" fill="white" transform="matrix(-1 0 0 1 30 0)"/>
</clipPath>
</defs>
</svg>
