<svg width="30" height="30" viewBox="0 0 30 30" fill="none" xmlns="http://www.w3.org/2000/svg">
<path d="M27.7652 7.06991C26.8112 7.49191 25.7997 7.76913 24.7639 7.89241C25.8552 7.23883 26.6718 6.21083 27.0614 4.99991C26.0364 5.60991 24.9127 6.03741 23.7427 6.26866C22.9559 5.42688 21.9131 4.86861 20.7764 4.68064C19.6396 4.49267 18.4726 4.68552 17.4567 5.22922C16.4409 5.77293 15.6331 6.63701 15.159 7.68715C14.685 8.73729 14.5711 9.91463 14.8352 11.0362C12.7563 10.9321 10.7226 10.3921 8.86608 9.45099C7.00955 8.50991 5.3717 7.18887 4.05891 5.57366C3.59427 6.37172 3.3501 7.27894 3.35141 8.20241C3.35141 10.0149 4.27516 11.6162 5.67641 12.5537C4.84642 12.5275 4.03472 12.3033 3.30891 11.8999V11.9637C3.30887 13.171 3.72645 14.3412 4.49082 15.2757C5.25519 16.2103 6.3193 16.8517 7.50266 17.0912C6.73221 17.3002 5.92427 17.331 5.14016 17.1812C5.47381 18.2204 6.12417 19.1292 7.00015 19.7804C7.87613 20.4316 8.93385 20.7924 10.0252 20.8124C8.9406 21.6642 7.69876 22.2939 6.37067 22.6654C5.04257 23.0369 3.65427 23.1429 2.28516 22.9774C4.67481 24.5141 7.45654 25.33 10.2977 25.3274C19.9152 25.3274 25.1727 17.3612 25.1727 10.4524C25.1727 10.2274 25.1677 9.99991 25.1577 9.77616C26.1807 9.03661 27.0636 8.11936 27.7652 7.06991Z" fill="white"/>
</svg>
