<svg width="152" height="150" viewBox="0 0 152 150" fill="none" xmlns="http://www.w3.org/2000/svg">
<path d="M88.6685 3.93499L90.2652 4.29994C90.2546 4.4621 90.2966 4.61503 90.3912 4.75873C90.4858 4.90244 90.6264 5.03015 90.8132 5.14185C91.0062 5.24967 91.2415 5.33529 91.5189 5.39871C91.9024 5.48634 92.216 5.5076 92.4599 5.46249C92.7049 5.41232 92.8493 5.29139 92.8932 5.09969C92.9266 4.95339 92.8895 4.82546 92.7818 4.71592C92.6741 4.60637 92.4452 4.49301 92.0951 4.37583L91.0582 4.0353C90.2924 3.78594 89.7652 3.47965 89.4766 3.11642C89.1892 2.74815 89.1009 2.32186 89.2116 1.83755C89.3015 1.44405 89.4911 1.13704 89.7804 0.916505C90.0747 0.697125 90.4443 0.566607 90.8891 0.52495C91.3401 0.479401 91.8431 0.520047 92.398 0.646887C92.9429 0.771422 93.4093 0.960314 93.7973 1.21357C94.1865 1.46177 94.4724 1.75538 94.655 2.09439C94.8427 2.43456 94.904 2.79361 94.8388 3.17154L93.2497 2.80832C93.2606 2.66749 93.2216 2.53647 93.1325 2.41525C93.0496 2.29014 92.9206 2.18103 92.7455 2.08791C92.5715 1.98975 92.3534 1.91069 92.091 1.85073C91.7379 1.77002 91.4469 1.75395 91.2182 1.80252C90.9906 1.84605 90.856 1.95862 90.8145 2.14024C90.7846 2.27141 90.8209 2.39118 90.9235 2.49958C91.0312 2.60912 91.243 2.71593 91.5589 2.81999L92.6605 3.19122C93.1888 3.36505 93.5999 3.55193 93.894 3.75185C94.1892 3.94672 94.3851 4.16934 94.4819 4.41971C94.5786 4.67008 94.59 4.9567 94.5162 5.27957C94.4251 5.67811 94.227 5.99911 93.9219 6.24256C93.6179 6.48097 93.2325 6.6344 92.7656 6.70287C92.2999 6.76629 91.782 6.73285 91.2119 6.60255C90.6267 6.46879 90.1281 6.26988 89.716 6.00582C89.3101 5.73787 89.015 5.42624 88.8308 5.07094C88.6478 4.7106 88.5936 4.33194 88.6685 3.93499Z" fill="white"/>
<path d="M102.667 7.43823C102.444 7.90297 102.129 8.26977 101.723 8.53863C101.318 8.8026 100.853 8.95521 100.329 8.99644C99.8095 9.03939 99.2567 8.95827 98.6706 8.75308C98.0307 8.52908 97.5134 8.21363 97.1185 7.80673C96.7236 7.39983 96.4671 6.93445 96.3489 6.41059C96.2356 5.88843 96.279 5.34163 96.4791 4.77016C96.6791 4.1987 96.9863 3.74422 97.4005 3.40674C97.8196 3.07097 98.3104 2.8672 98.8728 2.79544C99.4353 2.72368 100.036 2.79979 100.676 3.02379C101.262 3.22898 101.745 3.51036 102.124 3.86792C102.508 4.2272 102.776 4.63873 102.926 5.10252C103.078 5.56142 103.096 6.04205 102.98 6.54441L101.456 6.01092C101.49 5.75937 101.464 5.52821 101.378 5.31745C101.295 5.10179 101.154 4.90982 100.955 4.74154C100.761 4.57497 100.515 4.43953 100.217 4.33523C99.8753 4.21553 99.5575 4.17558 99.264 4.21537C98.9721 4.25027 98.7192 4.36186 98.5053 4.55014C98.293 4.73354 98.1305 4.98642 98.0176 5.30878C97.9048 5.63114 97.8733 5.93263 97.9231 6.21325C97.9746 6.48898 98.1026 6.73394 98.3073 6.94814C98.5136 7.15745 98.7878 7.32195 99.1297 7.44164C99.4276 7.54595 99.7035 7.59591 99.9572 7.59153C100.216 7.58886 100.445 7.52929 100.645 7.41281C100.845 7.29633 101.011 7.12698 101.143 6.90475L102.667 7.43823Z" fill="white"/>
<path d="M105.879 7.96257L107.789 8.88201C108.022 8.99427 108.229 9.02822 108.412 8.98385C108.594 8.93948 108.731 8.82171 108.823 8.63055C108.917 8.43472 108.924 8.25409 108.843 8.08865C108.764 7.91854 108.608 7.77736 108.375 7.66509L106.263 6.64799L107.246 6.26882L104.906 11.1295L103.458 10.4323L105.984 5.18701L109.096 6.68572C109.497 6.87881 109.812 7.11948 110.041 7.40771C110.272 7.69128 110.411 7.99937 110.457 8.33198C110.506 8.65992 110.449 8.99407 110.285 9.33444C110.125 9.66547 109.901 9.91647 109.612 10.0874C109.323 10.2584 108.995 10.3419 108.63 10.3381C108.264 10.3343 107.88 10.2358 107.48 10.0427L105.367 9.02563L105.879 7.96257ZM106.424 8.83634L108.053 9.62105L108.752 12.9818L107.074 12.1735L106.424 8.83634Z" fill="white"/>
<path d="M112.788 15.5539C112.206 15.1871 111.761 14.7571 111.454 14.264C111.151 13.7736 110.999 13.2585 110.996 12.7187C110.998 12.1817 111.16 11.657 111.483 11.1447C111.806 10.6324 112.209 10.2595 112.692 10.0259C113.18 9.79499 113.711 9.71019 114.284 9.77145C114.861 9.83547 115.441 10.0509 116.023 10.4177C116.61 10.7873 117.055 11.2173 117.358 11.7077C117.66 12.1981 117.813 12.7131 117.815 13.2529C117.818 13.7927 117.658 14.3187 117.335 14.831C117.012 15.3433 116.607 15.7149 116.119 15.9458C115.631 16.1767 115.101 16.2615 114.528 16.2002C113.955 16.1389 113.375 15.9235 112.788 15.5539ZM113.553 14.3388C113.873 14.5402 114.183 14.6592 114.484 14.6959C114.785 14.7326 115.061 14.6889 115.31 14.5647C115.564 14.4433 115.779 14.2425 115.956 13.9622C116.132 13.682 116.22 13.4012 116.22 13.1198C116.225 12.8411 116.145 12.574 115.982 12.3183C115.819 12.0627 115.578 11.8342 115.258 11.6328C114.943 11.4342 114.635 11.3166 114.334 11.2799C114.032 11.2431 113.755 11.2855 113.501 11.4069C113.247 11.5284 113.032 11.7292 112.856 12.0094C112.679 12.2897 112.591 12.5705 112.591 12.8519C112.591 13.1333 112.673 13.4018 112.836 13.6575C112.999 13.9131 113.238 14.1402 113.553 14.3388Z" fill="white"/>
<path d="M119.583 20.4194C119.049 19.9855 118.659 19.5054 118.413 18.9791C118.171 18.4561 118.081 17.9265 118.143 17.3903C118.209 16.8573 118.433 16.3558 118.815 15.8858C119.197 15.4157 119.641 15.0937 120.149 14.9195C120.661 14.7487 121.198 14.7279 121.76 14.8572C122.325 14.9898 122.875 15.273 123.41 15.7069C123.948 16.144 124.338 16.6241 124.58 17.1471C124.822 17.6701 124.912 18.1998 124.85 18.736C124.788 19.2722 124.566 19.7753 124.184 20.2454C123.803 20.7154 123.356 21.0358 122.844 21.2067C122.332 21.3776 121.795 21.3984 121.233 21.269C120.672 21.1397 120.122 20.8565 119.583 20.4194ZM120.489 19.3045C120.782 19.5426 121.076 19.6979 121.37 19.7704C121.665 19.8428 121.943 19.8323 122.206 19.7388C122.472 19.6486 122.71 19.475 122.919 19.2178C123.128 18.9607 123.249 18.6925 123.282 18.4131C123.32 18.1369 123.273 17.8622 123.141 17.5889C123.01 17.3156 122.798 17.0598 122.504 16.8217C122.215 16.5869 121.923 16.4332 121.629 16.3608C121.334 16.2883 121.054 16.2972 120.787 16.3874C120.521 16.4776 120.283 16.6513 120.074 16.9084C119.866 17.1655 119.744 17.4338 119.711 17.7132C119.677 17.9926 119.726 18.2689 119.858 18.5422C119.989 18.8156 120.199 19.0697 120.489 19.3045Z" fill="white"/>
<path d="M128.871 20.7578L125.237 24.3477L125.238 23.3322L128.299 26.4299L127.283 27.4338L123.6 23.7066L127.741 19.6147L128.871 20.7578Z" fill="white"/>
<path d="M133.934 26.2832L129.963 29.4964L130.064 28.486L132.804 31.8711L131.694 32.7696L128.397 28.6966L132.923 25.0342L133.934 26.2832Z" fill="white"/>
<path d="M140.82 36.0805C141.169 36.6737 141.37 37.255 141.423 37.8243C141.483 38.3955 141.395 38.9153 141.16 39.3837C140.933 39.8539 140.567 40.2373 140.063 40.5339C139.559 40.8304 139.044 40.9653 138.518 40.9387C137.999 40.9138 137.502 40.7378 137.027 40.4107C136.56 40.0854 136.151 39.6262 135.802 39.033L134.33 36.5308L139.348 33.5784L140.82 36.0805ZM135.723 37.5665L135.982 36.5223L137.096 38.4157C137.272 38.7145 137.476 38.943 137.707 39.1012C137.945 39.2612 138.196 39.345 138.458 39.3526C138.721 39.3601 138.981 39.2878 139.24 39.1356C139.503 38.9808 139.693 38.788 139.81 38.5574C139.931 38.3241 139.977 38.0658 139.948 37.7824C139.926 37.5009 139.828 37.2107 139.652 36.9119L138.538 35.0186L139.577 35.299L135.723 37.5665Z" fill="white"/>
<path d="M139.483 46.466C139.205 45.8361 139.077 45.2308 139.099 44.6503C139.123 44.0745 139.284 43.5623 139.585 43.1136C139.887 42.6696 140.315 42.3257 140.869 42.0818C141.423 41.8379 141.966 41.7545 142.497 41.8315C143.031 41.9133 143.518 42.14 143.959 42.5115C144.401 42.8877 144.761 43.3908 145.038 44.0207C145.318 44.6554 145.446 45.2607 145.422 45.8365C145.398 46.4123 145.237 46.9245 144.937 47.3732C144.636 47.8219 144.209 48.1682 143.655 48.4121C143.101 48.656 142.557 48.7371 142.024 48.6553C141.49 48.5735 141.003 48.3468 140.562 47.9753C140.122 47.6038 139.762 47.1007 139.483 46.466ZM140.797 45.8876C140.949 46.2333 141.14 46.5057 141.369 46.7046C141.597 46.9035 141.85 47.0213 142.126 47.058C142.405 47.0995 142.695 47.0535 142.998 46.9201C143.302 46.7867 143.532 46.6034 143.689 46.3701C143.849 46.1416 143.933 45.8758 143.94 45.5726C143.948 45.2695 143.876 44.945 143.724 44.5992C143.574 44.2582 143.385 43.9882 143.156 43.7893C142.927 43.5904 142.673 43.4702 142.395 43.4287C142.116 43.3873 141.826 43.4333 141.523 43.5667C141.219 43.7001 140.989 43.8834 140.832 44.1167C140.674 44.3499 140.592 44.6181 140.584 44.9213C140.576 45.2244 140.647 45.5465 140.797 45.8876Z" fill="white"/>
<path d="M144.28 57.9942L144.144 57.5083L149.484 57.5227L149.942 59.1599L143.858 59.0229L143.3 57.0269L147.631 54.067L147.809 54.7025L142.569 54.4104L142.013 52.4218L147.141 49.1423L147.601 50.787L143.043 53.5686L142.917 53.088L148.314 53.3362L148.771 54.9734L144.28 57.9942Z" fill="white"/>
<path d="M146.338 67.4979L146.174 67.0185L150.93 66.3937L151.133 67.9407L145.361 68.6989L145.097 66.6902L149.408 62.7339L149.572 63.2056L144.723 63.8425L144.52 62.2956L150.292 61.5374L150.563 63.6L146.338 67.4979Z" fill="white"/>
<path d="M146.718 85.2697L146.407 86.8777C146.244 86.8726 146.093 86.9197 145.952 87.0191C145.812 87.1184 145.689 87.2633 145.583 87.4537C145.482 87.6502 145.404 87.8882 145.35 88.1676C145.276 88.5538 145.265 88.8679 145.318 89.1102C145.377 89.3534 145.502 89.4937 145.695 89.531C145.843 89.5596 145.969 89.5182 146.075 89.4069C146.181 89.2956 146.287 89.063 146.392 88.7092L146.698 87.6614C146.921 86.8877 147.21 86.3505 147.563 86.0499C147.921 85.7503 148.344 85.6477 148.832 85.7421C149.228 85.8188 149.542 85.998 149.772 86.2798C150.001 86.5666 150.144 86.9316 150.2 87.3747C150.261 87.824 150.237 88.328 150.129 88.8869C150.023 89.4356 149.85 89.9081 149.61 90.3044C149.375 90.7017 149.091 90.9973 148.758 91.1911C148.424 91.3901 148.068 91.4634 147.688 91.4109L147.997 89.8105C148.138 89.8168 148.268 89.7733 148.386 89.6802C148.509 89.5932 148.613 89.4606 148.7 89.2825C148.793 89.1053 148.864 88.8846 148.916 88.6204C148.984 88.2648 148.991 87.9734 148.934 87.7465C148.883 87.5204 148.766 87.3897 148.583 87.3543C148.451 87.3288 148.333 87.3691 148.228 87.4753C148.122 87.5866 148.022 87.8019 147.929 88.1211L147.595 89.2345C147.439 89.7683 147.266 90.1855 147.076 90.4861C146.891 90.7877 146.675 90.991 146.428 91.096C146.181 91.2011 145.895 91.2222 145.57 91.1592C145.169 91.0815 144.841 90.8943 144.588 90.5975C144.339 90.3017 144.173 89.9216 144.089 89.4573C144.01 88.994 144.026 88.4753 144.137 87.9011C144.251 87.3118 144.433 86.8068 144.683 86.386C144.937 85.9714 145.239 85.666 145.588 85.47C145.942 85.275 146.318 85.2082 146.718 85.2697Z" fill="white"/>
<path d="M143.686 99.3775C143.214 99.1702 142.837 98.8679 142.554 98.4705C142.277 98.0746 142.109 97.6153 142.05 97.0927C141.99 96.5749 142.052 96.0197 142.238 95.4271C142.44 94.7801 142.738 94.2524 143.131 93.8441C143.525 93.4358 143.981 93.1639 144.501 93.0282C145.019 92.8975 145.567 92.9225 146.145 93.1033C146.723 93.2841 147.187 93.5758 147.538 93.9785C147.888 94.3861 148.108 94.8698 148.199 95.4295C148.289 95.9892 148.233 96.5926 148.031 97.2396C147.846 97.8322 147.581 98.3241 147.236 98.7151C146.89 99.1111 146.487 99.3919 146.029 99.5575C145.575 99.7247 145.096 99.7589 144.59 99.6603L145.072 98.1194C145.324 98.1441 145.554 98.1104 145.762 98.0182C145.975 97.9275 146.162 97.78 146.324 97.5757C146.484 97.3763 146.611 97.126 146.705 96.8247C146.813 96.479 146.842 96.1601 146.793 95.868C146.748 95.5775 146.628 95.3285 146.433 95.121C146.242 94.915 145.984 94.761 145.658 94.659C145.332 94.5571 145.03 94.5357 144.751 94.5948C144.477 94.6556 144.237 94.7918 144.029 95.0035C143.827 95.2167 143.672 95.4962 143.564 95.842C143.469 96.1432 143.429 96.4206 143.442 96.6741C143.453 96.9324 143.52 97.1595 143.643 97.3553C143.766 97.5511 143.941 97.7115 144.168 97.8366L143.686 99.3775Z" fill="white"/>
<path d="M143.27 102.606L142.415 104.545C142.311 104.782 142.284 104.99 142.334 105.171C142.385 105.351 142.507 105.485 142.701 105.57C142.9 105.658 143.081 105.658 143.243 105.572C143.411 105.487 143.546 105.326 143.651 105.09L144.597 102.945L145.008 103.915L140.072 101.739L140.72 100.269L146.047 102.617L144.654 105.778C144.474 106.185 144.244 106.508 143.964 106.746C143.688 106.987 143.385 107.136 143.054 107.193C142.728 107.253 142.392 107.207 142.046 107.055C141.71 106.906 141.452 106.691 141.271 106.407C141.091 106.124 140.996 105.8 140.988 105.434C140.979 105.068 141.065 104.682 141.245 104.275L142.19 102.13L143.27 102.606ZM142.415 103.179L141.685 104.834L138.35 105.645L139.101 103.941L142.415 103.179Z" fill="white"/>
<path d="M135.915 109.765C136.262 109.17 136.677 108.711 137.159 108.388C137.639 108.069 138.149 107.899 138.688 107.879C139.225 107.862 139.755 108.007 140.278 108.312C140.8 108.618 141.187 109.008 141.436 109.484C141.683 109.963 141.786 110.491 141.744 111.066C141.699 111.645 141.503 112.232 141.156 112.826C140.807 113.425 140.392 113.884 139.912 114.203C139.432 114.522 138.922 114.691 138.383 114.712C137.844 114.732 137.312 114.59 136.79 114.285C136.267 113.979 135.882 113.587 135.635 113.107C135.388 112.627 135.285 112.1 135.327 111.525C135.369 110.95 135.565 110.363 135.915 109.765ZM137.155 110.489C136.964 110.815 136.856 111.129 136.829 111.431C136.802 111.733 136.855 112.007 136.988 112.252C137.118 112.502 137.326 112.71 137.612 112.877C137.898 113.044 138.181 113.123 138.463 113.113C138.741 113.108 139.005 113.02 139.256 112.848C139.506 112.677 139.726 112.428 139.916 112.102C140.104 111.78 140.211 111.468 140.238 111.166C140.265 110.864 140.213 110.588 140.083 110.338C139.953 110.089 139.745 109.88 139.459 109.713C139.173 109.546 138.89 109.468 138.609 109.477C138.327 109.487 138.062 109.577 137.812 109.749C137.562 109.92 137.343 110.167 137.155 110.489Z" fill="white"/>
<path d="M131.28 116.719C131.695 116.171 132.162 115.765 132.68 115.501C133.195 115.242 133.721 115.134 134.259 115.179C134.794 115.227 135.302 115.434 135.785 115.799C136.268 116.165 136.604 116.599 136.796 117.101C136.983 117.607 137.022 118.142 136.912 118.708C136.798 119.278 136.534 119.837 136.118 120.385C135.699 120.938 135.232 121.344 134.718 121.603C134.203 121.863 133.677 121.97 133.139 121.926C132.601 121.882 132.091 121.677 131.608 121.312C131.125 120.946 130.79 120.51 130.602 120.004C130.414 119.498 130.375 118.962 130.486 118.397C130.596 117.831 130.861 117.272 131.28 116.719ZM132.424 117.587C132.196 117.888 132.051 118.187 131.988 118.483C131.926 118.78 131.946 119.058 132.048 119.317C132.147 119.581 132.328 119.813 132.592 120.013C132.856 120.213 133.129 120.325 133.409 120.349C133.686 120.377 133.959 120.321 134.228 120.181C134.497 120.04 134.745 119.819 134.973 119.518C135.198 119.221 135.342 118.924 135.405 118.628C135.467 118.331 135.449 118.051 135.35 117.787C135.251 117.524 135.069 117.292 134.805 117.092C134.541 116.892 134.269 116.78 133.989 116.756C133.708 116.732 133.434 116.79 133.165 116.931C132.896 117.071 132.649 117.29 132.424 117.587Z" fill="white"/>
<path d="M131.253 126.013L127.543 122.502L128.558 122.468L125.565 125.631L124.527 124.649L128.129 120.844L132.357 124.846L131.253 126.013Z" fill="white"/>
<path d="M125.9 131.258L122.555 127.398L123.569 127.465L120.277 130.316L119.342 129.237L123.302 125.806L127.114 130.206L125.9 131.258Z" fill="white"/>
<path d="M116.339 138.469C115.758 138.838 115.184 139.058 114.617 139.13C114.048 139.209 113.525 139.139 113.049 138.92C112.572 138.708 112.176 138.356 111.863 137.862C111.55 137.368 111.398 136.858 111.407 136.331C111.414 135.812 111.573 135.309 111.884 134.824C112.194 134.346 112.639 133.922 113.22 133.553L115.671 131.998L118.791 136.914L116.339 138.469ZM114.683 133.425L115.735 133.649L113.88 134.826C113.588 135.012 113.366 135.223 113.216 135.459C113.064 135.703 112.989 135.956 112.99 136.218C112.991 136.481 113.072 136.739 113.233 136.993C113.396 137.251 113.595 137.434 113.83 137.542C114.067 137.655 114.327 137.693 114.609 137.655C114.89 137.624 115.176 137.515 115.469 137.33L117.324 136.153L117.079 137.2L114.683 133.425Z" fill="white"/>
<path d="M105.915 137.481C106.535 137.183 107.136 137.035 107.717 137.037C108.293 137.041 108.81 137.186 109.269 137.471C109.723 137.758 110.081 138.174 110.343 138.72C110.605 139.265 110.707 139.805 110.648 140.339C110.584 140.875 110.374 141.369 110.017 141.822C109.656 142.277 109.165 142.654 108.545 142.952C107.92 143.252 107.319 143.4 106.743 143.396C106.167 143.392 105.65 143.247 105.191 142.962C104.733 142.677 104.372 142.262 104.11 141.717C103.847 141.171 103.748 140.63 103.812 140.094C103.876 139.558 104.086 139.064 104.443 138.611C104.799 138.158 105.29 137.781 105.915 137.481ZM106.537 138.775C106.197 138.939 105.931 139.139 105.74 139.374C105.549 139.609 105.439 139.866 105.412 140.143C105.38 140.423 105.435 140.712 105.579 141.01C105.722 141.309 105.913 141.533 106.152 141.682C106.385 141.834 106.654 141.909 106.957 141.906C107.26 141.904 107.582 141.821 107.923 141.658C108.259 141.496 108.522 141.298 108.713 141.062C108.904 140.827 109.016 140.569 109.048 140.29C109.08 140.01 109.024 139.721 108.881 139.423C108.737 139.124 108.546 138.9 108.308 138.751C108.07 138.601 107.799 138.527 107.496 138.53C107.192 138.532 106.873 138.614 106.537 138.775Z" fill="white"/>
<path d="M94.5542 142.662L95.0353 142.51L95.2 147.847L93.5791 148.36L93.512 142.275L95.4882 141.651L98.5916 145.88L97.9625 146.079L98.0787 140.832L100.047 140.209L103.497 145.225L101.869 145.74L98.9359 141.277L99.4119 141.135L99.3448 146.537L97.7239 147.05L94.5542 142.662Z" fill="white"/>
<path d="M85.1246 145.038L85.5982 144.858L86.3821 149.59L84.8428 149.845L83.8915 144.102L85.8902 143.771L89.9888 147.946L89.5229 148.126L88.7237 143.301L90.263 143.046L91.2144 148.79L89.162 149.13L85.1246 145.038Z" fill="white"/>
<path d="M67.3758 146.014L65.7583 145.756C65.7579 145.594 65.7057 145.444 65.6018 145.307C65.4978 145.17 65.3489 145.052 65.155 144.953C64.9552 144.859 64.7148 144.789 64.4337 144.744C64.0452 144.682 63.7309 144.682 63.4906 144.744C63.2494 144.81 63.1134 144.94 63.0826 145.135C63.059 145.283 63.1046 145.408 63.2194 145.51C63.3342 145.612 63.5701 145.71 63.9273 145.803L64.9847 146.074C65.7655 146.271 66.3121 146.541 66.6243 146.884C66.9358 147.233 67.0525 147.652 66.9745 148.143C66.9112 148.541 66.7426 148.86 66.4687 149.1C66.1897 149.338 65.8297 149.493 65.3887 149.565C64.9418 149.64 64.4372 149.634 63.875 149.544C63.3231 149.457 62.845 149.299 62.4409 149.073C62.036 148.851 61.731 148.577 61.5261 148.251C61.316 147.924 61.2309 147.57 61.2705 147.189L62.8804 147.445C62.8789 147.586 62.9267 147.714 63.0237 147.829C63.1148 147.948 63.2508 148.049 63.4318 148.13C63.6119 148.216 63.8349 148.28 64.1007 148.323C64.4584 148.379 64.7498 148.376 64.9748 148.312C65.1989 148.253 65.3256 148.132 65.3549 147.948C65.376 147.815 65.3317 147.698 65.2221 147.597C65.1073 147.495 64.8888 147.402 64.5666 147.32L63.4426 147.023C62.9039 146.885 62.4811 146.726 62.1743 146.547C61.8667 146.372 61.6563 146.163 61.543 145.92C61.4297 145.676 61.3991 145.391 61.4511 145.064C61.5153 144.66 61.6914 144.327 61.9796 144.063C62.2669 143.805 62.6412 143.626 63.1024 143.527C63.5628 143.432 64.0818 143.431 64.6593 143.522C65.2521 143.617 65.763 143.782 66.1919 144.018C66.6148 144.258 66.9301 144.549 67.1377 144.891C67.3445 145.238 67.4239 145.613 67.3758 146.014Z" fill="white"/>
<path d="M53.1742 143.456C53.3655 142.978 53.6551 142.59 54.0428 142.295C54.4291 142.004 54.8825 141.821 55.4029 141.745C55.9183 141.667 56.4753 141.711 57.0738 141.876C57.7273 142.057 58.2646 142.337 58.6859 142.717C59.1071 143.096 59.3943 143.543 59.5473 144.058C59.6953 144.571 59.6887 145.12 59.5273 145.703C59.366 146.287 59.0901 146.761 58.6994 147.126C58.3037 147.489 57.8277 147.725 57.2713 147.834C56.715 147.944 56.1101 147.908 55.4566 147.727C54.8581 147.562 54.3576 147.313 53.9553 146.982C53.5479 146.649 53.2538 146.257 53.0729 145.804C52.8906 145.356 52.8403 144.878 52.9219 144.369L54.4781 144.799C54.4618 145.052 54.5032 145.281 54.6024 145.486C54.7002 145.695 54.8539 145.877 55.0635 146.032C55.2681 146.185 55.5226 146.304 55.8268 146.388C56.176 146.484 56.4957 146.503 56.7859 146.444C57.0748 146.389 57.3196 146.261 57.5205 146.059C57.7199 145.862 57.8652 145.598 57.9562 145.269C58.0471 144.94 58.0584 144.637 57.9899 144.36C57.92 144.089 57.7758 143.853 57.5573 143.653C57.3374 143.458 57.0528 143.312 56.7037 143.216C56.3994 143.132 56.1208 143.1 55.8679 143.122C55.6101 143.142 55.3854 143.216 55.1939 143.346C55.0023 143.476 54.8479 143.656 54.7304 143.886L53.1742 143.456Z" fill="white"/>
<path d="M49.9334 143.149L47.9668 142.359C47.7267 142.263 47.5172 142.243 47.3384 142.299C47.1596 142.356 47.0307 142.483 46.9516 142.68C46.8707 142.881 46.8762 143.062 46.9683 143.222C47.0584 143.386 47.2235 143.516 47.4637 143.613L49.6392 144.486L48.683 144.93L50.6926 139.924L52.1838 140.522L50.0151 145.925L46.8095 144.638C46.3964 144.473 46.0661 144.254 45.8185 143.981C45.569 143.714 45.4098 143.416 45.341 143.087C45.2703 142.763 45.3053 142.426 45.4461 142.075C45.5829 141.734 45.7898 141.469 46.0668 141.279C46.3438 141.089 46.6649 140.984 47.0301 140.963C47.3953 140.942 47.7844 141.015 48.1974 141.18L50.3729 142.054L49.9334 143.149ZM49.3319 142.313L47.6534 141.64L46.7306 138.333L48.4595 139.027L49.3319 142.313Z" fill="white"/>
<path d="M42.5322 136.038C43.1379 136.364 43.6104 136.764 43.9499 137.235C44.2848 137.704 44.4715 138.208 44.5102 138.746C44.5443 139.282 44.4175 139.817 44.1299 140.349C43.8423 140.882 43.465 141.281 42.9982 141.547C42.5269 141.81 42.0033 141.93 41.4274 141.907C40.8471 141.882 40.254 141.706 39.6484 141.379C39.0382 141.05 38.5657 140.65 38.2308 140.181C37.8959 139.712 37.7091 139.209 37.6704 138.67C37.6318 138.132 37.7563 137.596 38.0439 137.064C38.3315 136.531 38.711 136.133 39.1824 135.87C39.6538 135.607 40.1773 135.487 40.7532 135.509C41.329 135.532 41.922 135.708 42.5322 136.038ZM41.85 137.301C41.5176 137.122 41.2 137.024 40.8972 137.007C40.5943 136.991 40.3226 137.053 40.082 137.194C39.8369 137.332 39.6357 137.547 39.4783 137.838C39.321 138.129 39.2518 138.415 39.2707 138.696C39.2852 138.975 39.3823 139.236 39.5622 139.48C39.7421 139.724 39.9982 139.936 40.3306 140.115C40.6585 140.292 40.9738 140.389 41.2766 140.406C41.5795 140.422 41.8534 140.361 42.0986 140.223C42.3437 140.085 42.545 139.87 42.7023 139.579C42.8597 139.287 42.9288 139.001 42.9099 138.72C42.8909 138.439 42.7915 138.177 42.6116 137.933C42.4317 137.689 42.1779 137.478 41.85 137.301Z" fill="white"/>
<path d="M35.4258 131.638C35.988 132.035 36.4095 132.488 36.6901 132.997C36.9665 133.503 37.0918 134.025 37.0658 134.564C37.0355 135.1 36.8458 135.616 36.4965 136.11C36.1472 136.605 35.725 136.956 35.2298 137.164C34.7304 137.369 34.1962 137.425 33.6272 137.334C33.054 137.239 32.4862 136.994 31.924 136.597C31.3576 136.197 30.9362 135.744 30.6598 135.238C30.3833 134.732 30.2581 134.21 30.2841 133.671C30.3101 133.132 30.4978 132.615 30.847 132.12C31.1963 131.626 31.6207 131.276 32.1201 131.071C32.6195 130.866 33.1537 130.81 33.7227 130.901C34.2917 130.993 34.8594 131.238 35.4258 131.638ZM34.5974 132.811C34.2888 132.593 33.9852 132.458 33.6865 132.406C33.3879 132.353 33.1107 132.382 32.855 132.493C32.5951 132.601 32.3696 132.79 32.1786 133.061C31.9875 133.331 31.8846 133.607 31.8699 133.888C31.8509 134.166 31.9161 134.437 32.0655 134.701C32.2149 134.965 32.4439 135.206 32.7525 135.424C33.0568 135.639 33.3583 135.772 33.657 135.825C33.9557 135.877 34.235 135.85 34.4949 135.742C34.7548 135.634 34.9803 135.445 35.1713 135.174C35.3624 134.904 35.4653 134.628 35.48 134.347C35.4948 134.066 35.4274 133.793 35.278 133.53C35.1286 133.266 34.9018 133.026 34.5974 132.811Z" fill="white"/>
<path d="M26.1369 131.923L29.5215 128.098L29.5889 129.111L26.3275 126.226L27.2739 125.156L31.1981 128.628L27.3403 132.988L26.1369 131.923Z" fill="white"/>
<path d="M20.7149 126.749L24.461 123.277L24.4279 124.292L21.4677 121.098L22.5152 120.127L26.077 123.97L21.8071 127.928L20.7149 126.749Z" fill="white"/>
<path d="M13.187 117.436C12.799 116.867 12.5596 116.301 12.4687 115.736C12.3707 115.17 12.4231 114.646 12.6259 114.163C12.8216 113.678 13.1609 113.271 13.6439 112.942C14.1268 112.612 14.6317 112.443 15.1584 112.434C15.6779 112.424 16.1854 112.566 16.6809 112.861C17.1693 113.154 17.6075 113.585 17.9955 114.154L19.6322 116.551L14.8237 119.833L13.187 117.436ZM18.1729 115.611L17.9843 116.671L16.7458 114.856C16.5503 114.57 16.332 114.355 16.0907 114.213C15.8423 114.069 15.5867 114.003 15.3242 114.013C15.0616 114.023 14.8064 114.112 14.5585 114.282C14.3063 114.454 14.1299 114.659 14.0291 114.897C13.9241 115.138 13.8954 115.398 13.9429 115.679C13.9833 115.959 14.1012 116.242 14.2967 116.528L15.5352 118.342L14.48 118.132L18.1729 115.611Z" fill="white"/>
<path d="M13.8256 106.984C14.1445 107.594 14.3126 108.189 14.33 108.77C14.3451 109.346 14.2179 109.868 13.9486 110.336C13.6769 110.799 13.2727 111.171 12.7361 111.451C12.1996 111.732 11.6636 111.851 11.1281 111.81C10.5903 111.764 10.0891 111.571 9.62468 111.229C9.15782 110.884 8.76496 110.406 8.4461 109.796C8.12485 109.181 7.95671 108.586 7.94168 108.01C7.92666 107.434 8.05381 106.912 8.32313 106.444C8.59246 105.976 8.99541 105.602 9.53198 105.322C10.0686 105.041 10.6058 104.924 11.1436 104.97C11.6814 105.016 12.1826 105.209 12.647 105.55C13.1115 105.891 13.5044 106.369 13.8256 106.984ZM12.553 107.649C12.378 107.314 12.1696 107.055 11.9279 106.872C11.6862 106.689 11.4263 106.588 11.1482 106.57C10.8677 106.548 10.5807 106.613 10.2872 106.766C9.99366 106.92 9.77619 107.118 9.63475 107.361C9.49092 107.6 9.42521 107.871 9.43762 108.174C9.45003 108.477 9.54374 108.796 9.71875 109.131C9.89137 109.461 10.0985 109.718 10.3402 109.901C10.582 110.084 10.8431 110.187 11.1236 110.209C11.404 110.232 11.691 110.167 11.9846 110.013C12.2781 109.86 12.4955 109.662 12.637 109.418C12.7784 109.175 12.8429 108.902 12.8305 108.599C12.8181 108.296 12.7256 107.979 12.553 107.649Z" fill="white"/>
<path d="M8.26619 95.8032L8.43431 96.2789L3.10555 96.6224L2.53914 95.0196L8.61799 94.7485L9.30856 96.7027L5.18572 99.9461L4.96587 99.324L10.2138 99.2643L10.9018 101.211L6.00488 104.827L5.43588 103.217L9.79733 100.136L9.95554 100.607L4.55393 100.721L3.98751 99.1182L8.26619 95.8032Z" fill="white"/>
<path d="M5.57601 86.4587L5.77253 86.926L1.06877 87.8682L0.762341 86.3383L6.47078 85.1949L6.86869 87.1815L2.83267 91.4178L2.63768 90.9581L7.43277 89.9976L7.7392 91.5275L2.03076 92.6709L1.62218 90.6311L5.57601 86.4587Z" fill="white"/>
<path d="M4.00543 68.7526L4.20816 67.1273C4.37055 67.1215 4.51849 67.0643 4.65197 66.9558C4.78545 66.8473 4.89838 66.6945 4.99076 66.4974C5.07865 66.2945 5.1402 66.0519 5.17543 65.7695C5.22412 65.3792 5.21376 65.065 5.14438 64.8269C5.06986 64.5881 4.93503 64.4566 4.7399 64.4322C4.59098 64.4137 4.46743 64.4634 4.36925 64.5816C4.27108 64.6997 4.18128 64.9388 4.09985 65.2989L3.8652 66.3648C3.69402 67.1518 3.44223 67.7071 3.10982 68.0307C2.77228 68.3536 2.35702 68.4844 1.86405 68.4229C1.4635 68.3729 1.139 68.2151 0.890523 67.9494C0.642689 67.6786 0.47571 67.324 0.389586 66.8856C0.298967 66.4415 0.288887 65.937 0.359348 65.3721C0.428527 64.8175 0.569615 64.3345 0.782611 63.923C0.990472 63.5108 1.25388 63.1969 1.57284 62.9811C1.89243 62.7602 2.24351 62.6632 2.62608 62.6901L2.4243 64.3077C2.28309 64.3109 2.15666 64.3629 2.045 64.4637C1.92884 64.5588 1.83324 64.6981 1.75819 64.8817C1.678 65.0646 1.62125 65.2896 1.58794 65.5566C1.5431 65.9161 1.55634 66.2072 1.62764 66.4299C1.69381 66.652 1.81933 66.7745 2.0042 66.7976C2.13771 66.8143 2.25324 66.7661 2.35077 66.6531C2.44895 66.535 2.53394 66.3135 2.60575 65.9887L2.86445 64.8554C2.98434 64.3123 3.12897 63.8845 3.29835 63.5719C3.46259 63.2586 3.6644 63.0412 3.90379 62.9199C4.14317 62.7985 4.42719 62.7583 4.75584 62.7993C5.16152 62.8499 5.5008 63.0148 5.77366 63.2939C6.0414 63.5724 6.23277 63.9405 6.34778 64.3981C6.45766 64.8551 6.47641 65.3737 6.40403 65.954C6.32973 66.5497 6.18191 67.0658 5.96057 67.5023C5.73474 67.9331 5.45433 68.2579 5.11933 68.4769C4.77919 68.6952 4.40789 68.7871 4.00543 68.7526Z" fill="white"/>
<path d="M6.08498 54.4731C6.56976 54.6483 6.96633 54.9247 7.27467 55.3023C7.57798 55.6786 7.77649 56.1256 7.87018 56.6432C7.96509 57.1557 7.9399 57.7138 7.79462 58.3176C7.63602 58.9767 7.37413 59.5231 7.00895 59.9569C6.64377 60.3906 6.20651 60.6926 5.69716 60.8628C5.18903 61.0279 4.64063 61.0397 4.05196 60.898C3.46329 60.7564 2.98027 60.4965 2.60288 60.1182C2.22671 59.735 1.97468 59.2671 1.84679 58.7147C1.7189 58.1623 1.73425 57.5566 1.89285 56.8975C2.03813 56.2937 2.2696 55.7852 2.58726 55.372C2.90614 54.9537 3.28876 54.6466 3.73512 54.4506C4.17644 54.2534 4.65282 54.187 5.16424 54.2515L4.78651 55.8213C4.5329 55.8135 4.30553 55.8626 4.10438 55.9686C3.89821 56.0733 3.72139 56.233 3.57392 56.4477C3.42767 56.6574 3.31761 56.9156 3.24376 57.2225C3.15902 57.5747 3.15118 57.8949 3.22025 58.183C3.28429 58.4698 3.42072 58.7102 3.62954 58.9042C3.83332 59.0969 4.10125 59.2333 4.43332 59.3132C4.76539 59.3931 5.06852 59.3942 5.34271 59.3164C5.61187 59.2375 5.84273 59.0854 6.03529 58.8603C6.22282 58.634 6.35896 58.3447 6.4437 57.9925C6.51755 57.6856 6.53956 57.4061 6.50971 57.1541C6.48108 56.8971 6.39879 56.675 6.26283 56.4879C6.12687 56.3009 5.94168 56.1525 5.70725 56.0429L6.08498 54.4731Z" fill="white"/>
<path d="M6.28424 51.2242L7.00725 49.2322C7.09552 48.989 7.10844 48.7789 7.046 48.6021C6.98355 48.4253 6.85261 48.3007 6.65316 48.2283C6.44886 48.1542 6.26848 48.1658 6.11202 48.2631C5.9507 48.3587 5.8259 48.5281 5.73762 48.7714L4.93781 50.975L4.46174 50.0342L9.53293 51.8748L8.98471 53.3852L3.51221 51.3989L4.69074 48.1519C4.84258 47.7336 5.0504 47.3961 5.31419 47.1395C5.57313 46.8811 5.86571 46.7121 6.19195 46.6323C6.51333 46.5508 6.85157 46.5744 7.20668 46.7033C7.55205 46.8287 7.8243 47.0266 8.02342 47.297C8.22254 47.5675 8.33857 47.8849 8.3715 48.2492C8.40444 48.6135 8.34498 49.0048 8.19314 49.4231L7.39333 51.6267L6.28424 51.2242ZM7.09892 50.595L7.71599 48.8949L10.9895 47.8616L10.3539 49.6128L7.09892 50.595Z" fill="white"/>
<path d="M13.1428 43.5887C12.8363 44.205 12.4532 44.6906 11.9934 45.0457C11.5359 45.3961 11.0387 45.5997 10.5019 45.6564C9.96745 45.7085 9.42914 45.5997 8.88701 45.3301C8.34489 45.0604 7.93332 44.6968 7.65231 44.2392C7.3736 43.7769 7.23595 43.2576 7.23935 42.6814C7.24505 42.1005 7.40115 41.5019 7.70763 40.8856C8.01643 40.2647 8.39957 39.7791 8.85705 39.4286C9.31454 39.0782 9.81168 38.8746 10.3485 38.8179C10.8853 38.7612 11.4247 38.8677 11.9669 39.1373C12.509 39.4069 12.9194 39.7729 13.1981 40.2351C13.4768 40.6974 13.6145 41.2167 13.6111 41.793C13.6077 42.3692 13.4516 42.9678 13.1428 43.5887ZM11.857 42.9492C12.0252 42.611 12.1125 42.2903 12.1188 41.9871C12.1251 41.6839 12.0539 41.4144 11.9053 41.1787C11.759 40.9383 11.5375 40.7444 11.241 40.5969C10.9444 40.4494 10.6562 40.3898 10.3762 40.4182C10.0985 40.442 9.84071 40.5478 9.60274 40.7358C9.36477 40.9237 9.16167 41.1868 8.99345 41.5251C8.82753 41.8587 8.74142 42.1771 8.73512 42.4803C8.72883 42.7835 8.79884 43.0553 8.94515 43.2957C9.09147 43.536 9.3129 43.73 9.60945 43.8774C9.906 44.0249 10.1943 44.0845 10.4742 44.0561C10.7542 44.0277 11.0132 43.9196 11.2511 43.7316C11.4891 43.5436 11.6911 43.2828 11.857 42.9492Z" fill="white"/>
<path d="M17.301 36.3389C16.923 36.9141 16.4846 37.3504 15.9856 37.648C15.4895 37.9412 14.9716 38.0839 14.4319 38.076C13.895 38.0637 13.3735 37.8914 12.8675 37.5589C12.3615 37.2264 11.9964 36.8161 11.7721 36.3282C11.5507 35.8359 11.4761 35.3039 11.5484 34.7322C11.6235 34.1561 11.8501 33.5805 12.228 33.0053C12.6088 32.4258 13.0473 31.9894 13.5434 31.6962C14.0395 31.403 14.5574 31.2603 15.0972 31.2682C15.6369 31.2761 16.1598 31.4463 16.6658 31.7788C17.1718 32.1113 17.5355 32.5237 17.7569 33.016C17.9783 33.5082 18.0529 34.0403 17.9806 34.612C17.9084 35.1837 17.6818 35.7593 17.301 36.3389ZM16.1009 35.5502C16.3083 35.2345 16.4333 34.9265 16.4758 34.6263C16.5183 34.326 16.4799 34.05 16.3605 33.7982C16.244 33.542 16.0473 33.323 15.7706 33.1411C15.4938 32.9592 15.2147 32.8656 14.9333 32.8603C14.6548 32.8507 14.3862 32.925 14.1275 33.0831C13.8687 33.2413 13.6356 33.4782 13.4282 33.7939C13.2235 34.1053 13.1 34.4111 13.0575 34.7114C13.015 35.0117 13.052 35.2899 13.1685 35.546C13.285 35.8022 13.4817 36.0212 13.7585 36.2031C14.0353 36.3849 14.3143 36.4785 14.5957 36.4838C14.877 36.4891 15.1471 36.4127 15.4058 36.2546C15.6646 36.0964 15.8963 35.8616 16.1009 35.5502Z" fill="white"/>
<path d="M16.7049 27.0648L20.6416 30.3192L19.6312 30.4205L22.4059 27.0642L23.5067 27.9742L20.1683 32.0126L15.6812 28.3032L16.7049 27.0648Z" fill="white"/>
<path d="M21.6939 21.4721L25.2896 25.0997L24.2742 25.1007L27.367 22.035L28.3725 23.0494L24.6512 26.738L20.5527 22.6033L21.6939 21.4721Z" fill="white"/>
<path d="M30.7503 13.6364C31.3054 13.2295 31.8636 12.9712 32.4247 12.8615C32.987 12.7445 33.513 12.7793 34.0026 12.9658C34.4933 13.1451 34.9115 13.4706 35.2572 13.9422C35.6028 14.4139 35.7888 14.9128 35.8151 15.4389C35.8425 15.9577 35.7173 16.4697 35.4395 16.9749C35.1628 17.4728 34.7469 17.9252 34.1918 18.3321L31.8502 20.0482L28.4087 15.3525L30.7503 13.6364ZM32.7407 18.5583L31.6758 18.4052L33.4477 17.1066C33.7273 16.9017 33.9342 16.6762 34.0684 16.4303C34.2037 16.1772 34.2619 15.9196 34.243 15.6575C34.2242 15.3955 34.126 15.1434 33.9486 14.9013C33.7681 14.655 33.5573 14.4855 33.3161 14.3928C33.0719 14.2959 32.8102 14.276 32.5312 14.3329C32.2532 14.3827 31.9744 14.51 31.6948 14.715L29.9229 16.0136L30.0977 14.952L32.7407 18.5583Z" fill="white"/>
<path d="M41.2175 13.9239C40.6186 14.2631 40.0293 14.4511 39.4495 14.4879C38.8743 14.5223 38.3484 14.4127 37.8718 14.1592C37.3997 13.9032 37.0145 13.5117 36.7162 12.9848C36.4179 12.458 36.2803 11.9263 36.3036 11.3898C36.3314 10.8507 36.508 10.3433 36.8334 9.8677C37.1632 9.38951 37.6276 8.98085 38.2266 8.64172C38.83 8.30004 39.4193 8.11203 39.9946 8.0777C40.5698 8.04337 41.0957 8.15295 41.5723 8.40643C42.0489 8.65992 42.4363 9.05009 42.7347 9.57696C43.033 10.1038 43.1683 10.6368 43.1405 11.1759C43.1127 11.7149 42.9361 12.2223 42.6107 12.6979C42.2854 13.1736 41.821 13.5822 41.2175 13.9239ZM40.51 12.6743C40.8387 12.4882 41.0905 12.2712 41.2654 12.0235C41.4404 11.7758 41.5322 11.5126 41.541 11.2341C41.5543 10.953 41.4794 10.6684 41.3162 10.3802C41.153 10.092 40.9474 9.88127 40.6996 9.74807C40.4562 9.61232 40.1833 9.55573 39.8809 9.57829C39.5784 9.60085 39.2629 9.7052 38.9341 9.89134C38.6099 10.0749 38.3603 10.2906 38.1854 10.5383C38.0105 10.786 37.9164 11.0504 37.9031 11.3315C37.8898 11.6126 37.9647 11.8973 38.1279 12.1855C38.2911 12.4737 38.4967 12.6844 38.7445 12.8176C38.9924 12.9508 39.2676 13.0061 39.57 12.9835C39.8724 12.961 40.1857 12.8579 40.51 12.6743Z" fill="white"/>
<path d="M52.2058 7.99262L51.736 8.17659L51.214 2.86235L52.7969 2.24251L53.2717 8.30886L51.3418 9.06456L47.9619 5.05279L48.5763 4.81221L48.812 10.0552L46.8893 10.808L43.1113 6.03516L44.7015 5.41248L47.9268 9.66818L47.4614 9.84209L47.1663 4.44734L48.7492 3.8275L52.2058 7.99262Z" fill="white"/>
<path d="M61.4545 4.99047L60.9941 5.20255L59.8947 0.533031L61.4134 0.175472L62.7476 5.84236L60.7755 6.30666L56.4063 2.41496L56.8591 2.20466L57.9799 6.96485L56.4611 7.32241L55.127 1.65552L57.1519 1.17877L61.4545 4.99047Z" fill="white"/>
<g clip-path="url(#clip0_301_1637)">
<path fill-rule="evenodd" clip-rule="evenodd" d="M85.8669 77.3338L87.1001 82.9388C81.6891 89.7629 69.4039 89.2926 64.0438 82.9388L65.5858 77.3338C72.4528 79.0402 79.2047 78.9039 85.8669 77.3338ZM88.6893 92.5641C88.2423 87.7286 88.4555 81.962 88.6808 75.8759C88.888 70.2529 89.106 64.3561 88.8201 58.6957L88.8201 58.6716C88.8177 56.1416 88.7886 54.0663 88.1551 52.2804C87.5289 50.5186 86.2921 48.9823 83.8695 47.4677C81.4165 45.9351 77.8831 45.2151 74.4345 45.4008C71.1882 45.5757 68.0351 46.5549 65.9613 48.4156C62.4836 51.5364 62.4909 53.9071 62.503 57.8926L62.503 58.709C61.9761 65.527 62.2171 71.8543 62.4521 78.0248C62.6351 82.8266 62.8143 87.538 62.6278 92.3157C62.3867 98.5055 65.4029 102.311 69.4572 104.043C71.3856 104.867 73.5502 105.228 75.7137 105.16C77.8819 105.091 80.0478 104.59 81.975 103.692C86.1383 101.749 89.1847 97.9267 88.6893 92.5641ZM89.6899 75.9121C89.6135 77.9959 89.5372 80.041 89.49 82.0223C89.513 82.003 89.5348 81.9789 89.5566 81.9536C89.92 81.511 89.7674 80.9648 89.9491 80.4896C89.9915 80.3787 90.046 80.2846 90.1126 80.2087C90.2228 80.082 90.4748 79.9916 90.7752 79.9265C91.479 79.7733 93.6848 79.5177 94.2347 79.7396C94.5581 79.8698 94.6817 80.246 94.5157 80.767C94.2662 81.4785 93.8507 81.8812 93.2475 82.2394C92.2251 82.8459 91.0284 83.0268 89.467 83.0485C89.4016 86.4431 89.4318 89.6314 89.6947 92.4737C90.2362 98.3271 86.9268 102.491 82.4026 104.602C80.3518 105.559 78.0479 106.092 75.7452 106.165C73.4376 106.238 71.1252 105.851 69.0611 104.969C64.6446 103.083 61.3571 98.9614 61.6175 92.2808C61.7387 89.1949 61.7048 86.1296 61.6163 83.0473C60.0852 83.022 58.9054 82.8387 57.8964 82.2394C57.2931 81.8812 56.8777 81.4785 56.6281 80.767C56.4622 80.246 56.5857 79.8698 56.9091 79.7396C57.4591 79.5177 59.6649 79.7733 60.3687 79.9265C60.6691 79.9916 60.921 80.082 61.0313 80.2087C61.0979 80.2846 61.1524 80.3787 61.1948 80.4896C61.3765 80.9623 61.2251 81.5074 61.5836 81.9475C61.5412 80.656 61.4916 79.3621 61.4419 78.0598C61.2057 71.8543 60.9622 65.4897 61.4952 58.6354L61.4928 57.8926C61.4794 53.625 61.4722 51.0866 65.2842 47.6655C67.5385 45.6444 70.9205 44.582 74.3824 44.3951C78.0248 44.1998 81.7787 44.9728 84.4073 46.6164C87.0492 48.2684 88.4083 49.9711 89.1084 51.944C89.8001 53.8915 89.8328 56.0488 89.8328 58.6716C90.1174 64.3597 89.8982 70.2734 89.6899 75.9121ZM87.6306 63.6495C88.3295 67.6988 88.2024 73.9296 87.3932 77.9693C85.8863 72.315 86.2291 69.123 87.6306 63.6495ZM63.5133 63.6495C62.8143 67.6988 62.9415 73.9296 63.7507 77.9693C65.2576 72.315 64.9148 69.123 63.5133 63.6495ZM72.408 103.516C70.2567 102.715 68.3925 101.635 66.9074 100.209C65.4162 98.7793 64.3055 97.0006 63.6671 94.8095C63.6404 94.7154 63.695 94.6154 63.7907 94.5876C63.8476 94.5719 63.9057 94.584 63.9493 94.6166C65.6658 95.8996 67.6039 97.5396 69.2682 99.1953C70.6831 100.603 71.9053 102.027 72.6321 103.26C72.6512 103.293 72.6596 103.33 72.6561 103.368C72.6526 103.405 72.6373 103.44 72.6126 103.469C72.5878 103.497 72.5547 103.517 72.518 103.525C72.4812 103.534 72.4428 103.53 72.408 103.516ZM84.8107 99.6969C83.3256 101.122 81.4614 102.203 79.3101 103.003C79.2753 103.018 79.2368 103.021 79.2001 103.013C79.1634 103.004 79.1303 102.984 79.1055 102.956C79.0807 102.928 79.0655 102.892 79.062 102.855C79.0585 102.818 79.0669 102.78 79.086 102.748C79.8128 101.514 81.0338 100.091 82.4486 98.6828C84.1129 97.0271 86.0523 95.3871 87.7687 94.1041C87.8123 94.0715 87.8705 94.0594 87.9274 94.0751C87.973 94.0886 88.0114 94.1195 88.0343 94.161C88.0572 94.2026 88.0628 94.2514 88.0497 94.297C87.4126 96.4881 86.3018 98.2668 84.8107 99.6969ZM85.7337 59.6701L84.7283 62.5364C78.3131 61.544 71.64 61.62 66.3187 62.5545L65.4102 59.8473C72.5872 56.4106 78.2162 56.0355 85.7337 59.6701Z" fill="white"/>
</g>
<path d="M44.1459 63.7913C44.1459 63.3296 43.7717 62.9554 43.3101 62.9554C42.8484 62.9554 42.4742 63.3296 42.4742 63.7913L44.1459 63.7913ZM42.719 88.2224C43.0454 88.5488 43.5747 88.5488 43.9011 88.2224L49.2206 82.9029C49.547 82.5765 49.547 82.0472 49.2206 81.7208C48.8941 81.3944 48.3649 81.3944 48.0385 81.7208L43.3101 86.4492L38.5816 81.7208C38.2552 81.3944 37.726 81.3944 37.3995 81.7208C37.0731 82.0472 37.0731 82.5765 37.3995 82.9029L42.719 88.2224ZM42.4742 63.7913L42.4742 87.6313L44.1459 87.6313L44.1459 63.7913L42.4742 63.7913Z" fill="white"/>
<path d="M108.602 63.7913C108.602 63.3296 108.228 62.9554 107.766 62.9554C107.304 62.9554 106.93 63.3296 106.93 63.7913L108.602 63.7913ZM107.175 88.2224C107.501 88.5488 108.031 88.5488 108.357 88.2224L113.677 82.9029C114.003 82.5765 114.003 82.0472 113.677 81.7208C113.35 81.3944 112.821 81.3944 112.495 81.7208L107.766 86.4492L103.038 81.7208C102.711 81.3944 102.182 81.3944 101.856 81.7208C101.529 82.0472 101.529 82.5765 101.856 82.9029L107.175 88.2224ZM106.93 63.7913L106.93 87.6313L108.602 87.6313L108.602 63.7913L106.93 63.7913Z" fill="white"/>
<defs>
<clipPath id="clip0_301_1637">
<rect width="38.0354" height="61.8075" fill="white" transform="translate(94.5898 106.174) rotate(180)"/>
</clipPath>
</defs>
</svg>
