<svg width="100" height="100" viewBox="0 0 100 100" fill="none" xmlns="http://www.w3.org/2000/svg">
<rect width="100" height="100" rx="10" fill="#039BE5"/>
<g clip-path="url(#clip0_301_1772)">
<path d="M74.6044 33.3129V33.592C74.5604 34.0024 74.4751 34.5044 74.3486 35.0977C72.096 45.6837 69.8363 56.268 67.5694 66.8509C67.5682 66.8583 67.5077 67.1631 67.3881 67.7651C67.2746 68.3356 67.1515 68.7758 67.0188 69.0858C66.8378 69.5081 66.6595 69.8103 66.484 69.9926C65.9155 70.5804 65.2269 70.7624 64.4184 70.5386C63.9106 70.3978 63.5565 70.2546 63.3563 70.1089C59.7315 67.465 56.0894 64.7976 52.4299 62.1066C52.4144 62.095 52.3951 62.0893 52.3755 62.0907C52.3559 62.092 52.3373 62.1003 52.323 62.1141C50.4232 63.9314 48.5426 65.723 46.6812 67.4889C46.2026 67.9434 45.6219 68.1694 44.9392 68.1669C44.9321 68.1669 44.925 68.1655 44.9184 68.1627C44.9118 68.1599 44.9059 68.1558 44.901 68.1506C44.8961 68.1455 44.8924 68.1394 44.89 68.1327C44.8876 68.1261 44.8866 68.1191 44.8871 68.112L45.6665 57.182C45.6707 57.1288 45.695 57.0793 45.7344 57.0434C52.4674 51.0042 59.1778 44.9849 65.8656 38.9854C66.0863 38.7876 66.215 38.6292 66.2515 38.5101C66.3278 38.2602 66.2522 38.1148 66.0246 38.0739C65.58 37.9939 65.1423 38.0888 64.7114 38.3585C56.329 43.6146 47.9446 48.8669 39.5579 54.1156C39.5454 54.1235 39.5313 54.1285 39.5167 54.1305C39.5021 54.1324 39.4873 54.1311 39.4733 54.1267C36.0674 53.077 32.6624 52.0257 29.2584 50.9729C28.8901 50.8588 28.528 50.728 28.1721 50.5804C27.8088 50.4298 27.4925 50.2118 27.2234 49.9266C27.1193 49.8156 27.0399 49.6373 26.9854 49.3918V49.1593C27.0895 48.7842 27.2774 48.4856 27.549 48.2636C27.8875 47.9877 28.267 47.7506 28.6874 47.5522C28.8126 47.4932 29.2262 47.3292 29.9281 47.0602C43.719 41.7762 57.5105 36.4944 71.3027 31.2147C71.7144 31.0572 72.1097 30.9745 72.4885 30.9664C73.3311 30.9497 73.9338 31.2901 74.2965 31.9876C74.4857 32.3522 74.5883 32.794 74.6044 33.3129Z" fill="white"/>
</g>
<defs>
<clipPath id="clip0_301_1772">
<rect width="47.619" height="47.619" fill="white" transform="translate(26.9854 26.9829)"/>
</clipPath>
</defs>
</svg>
