<svg width="100" height="100" viewBox="0 0 100 100" fill="none" xmlns="http://www.w3.org/2000/svg">
<rect width="100" height="100" rx="10" fill="#03A9F4"/>
<path d="M36.9354 53.9826C34.8321 53.394 33.1514 52.1206 31.8933 50.1624C31.5607 49.6455 31.2781 49.1057 31.0453 48.543C30.4752 47.1653 30.1903 45.7019 30.1909 44.1529C30.191 44.1451 30.1928 44.1375 30.1961 44.1308C30.1994 44.124 30.2041 44.1184 30.2098 44.1144C30.2155 44.1104 30.222 44.1081 30.2287 44.1079C30.2353 44.1076 30.2419 44.1094 30.2478 44.113C31.4121 44.8259 32.6582 45.2205 33.9863 45.2966C34.021 45.2991 34.0243 45.2883 33.996 45.2642C31.8363 43.459 30.6089 41.0473 30.3138 38.0292C30.2503 37.381 30.2443 36.7485 30.2959 36.132C30.4152 34.6997 30.7781 33.3375 31.3847 32.0454C31.3888 32.0363 31.3948 32.0286 31.4022 32.0229C31.4096 32.0172 31.4181 32.0137 31.4269 32.0128C31.4357 32.0118 31.4447 32.0134 31.4529 32.0175C31.4612 32.0215 31.4685 32.0278 31.4742 32.0359C32.2587 33.1383 33.1001 34.1602 33.9985 35.1015C38.2409 39.5437 43.2304 41.9801 48.9669 42.4108C48.9747 42.4114 48.9826 42.4098 48.9899 42.4063C48.9972 42.4028 49.0037 42.3973 49.0089 42.3903C49.0142 42.3834 49.018 42.3751 49.0202 42.3661C49.0223 42.3571 49.0228 42.3477 49.0214 42.3385C48.5304 39.2874 49.0287 36.5741 50.5163 34.1986C50.8396 33.6823 51.2009 33.2106 51.6002 32.7837C53.1409 31.1352 54.9678 30.2623 57.0809 30.1653C57.6327 30.1399 58.173 30.1783 58.7019 30.2804C60.5666 30.6401 62.1881 31.635 63.5666 33.2652C63.5756 33.276 63.5868 33.2839 63.5992 33.2882C63.6116 33.2926 63.6247 33.2932 63.6374 33.2899C65.5248 32.8237 67.295 32.0378 68.9481 30.9322C68.998 30.8986 69.0134 30.9135 68.9944 30.9769C68.3244 33.2541 67.1114 35.0353 65.3553 36.3204C65.2783 36.3768 65.2848 36.3981 65.3748 36.3841C67.0002 36.1272 68.5745 35.6201 70.0979 34.8627C70.1478 34.838 70.1576 34.8516 70.1272 34.9036C68.9809 36.8713 67.5877 38.5592 65.9477 39.9674C65.9377 39.9759 65.9295 39.9872 65.924 40.0005C65.9185 40.0137 65.9157 40.0285 65.916 40.0435C65.9398 41.2874 65.9312 42.2446 65.8899 42.915C65.5699 48.0968 64.2003 52.8551 61.7812 57.19C59.2955 61.6455 56.0453 64.9648 52.0307 67.1481C49.3474 68.6071 46.4334 69.4453 43.2884 69.6629C37.9621 70.0321 33.0678 68.576 28.6057 65.2947C28.5574 65.2592 28.5614 65.2446 28.6179 65.2509C33.2666 65.7787 37.4252 64.4104 41.0937 61.1462C41.1154 61.1272 41.1124 61.1171 41.0847 61.1158C39.6173 61.0441 38.312 60.6207 37.1689 59.8456C35.2517 58.5452 33.9258 56.6696 33.1912 54.2186C33.1893 54.2124 33.1888 54.2057 33.1899 54.1992C33.1909 54.1927 33.1934 54.1866 33.197 54.1816C33.2007 54.1765 33.2055 54.1726 33.2109 54.1702C33.2163 54.1679 33.2221 54.1671 33.2278 54.1681C34.4713 54.4212 35.7074 54.367 36.9362 54.0054C36.9628 53.9978 36.9625 53.9902 36.9354 53.9826Z" fill="white"/>
</svg>
